<svg width="662" height="669" viewBox="0 0 662 669" fill="none" xmlns="http://www.w3.org/2000/svg">
<path opacity="0.5" d="M408.231 529.128C522.308 529.128 614.786 433.738 614.786 316.068C614.786 198.397 522.308 103.007 408.231 103.007C294.154 103.007 201.676 198.397 201.676 316.068C201.676 433.738 294.154 529.128 408.231 529.128Z" stroke="white" stroke-opacity="0.6" stroke-width="88"/>
<path d="M476.869 239.106L473.332 242.743C459.489 257.084 444.981 271.835 426.422 279.109C407.863 286.382 383.87 283.872 371.771 267.994C367.983 262.871 365.423 256.948 364.286 250.682C358.8 223.382 375.513 196.082 396.584 177.796C424.935 153.262 457.695 136.513 487.328 112.491C505.271 97.996 525.983 85.0887 548.849 83.6033C571.714 82.118 597.194 95.2302 602.782 117.613C606.884 134.055 599.655 151.674 588.273 164.274C576.892 176.874 561.717 185.274 546.849 193.521C521.933 207.401 497.325 219.079 476.869 239.106Z" fill="#D7DEF5"/>
<path d="M113.637 367.051L110.099 370.688C96.2569 385.029 81.7482 399.781 63.1893 407.054C44.6305 414.327 20.6373 411.817 8.53821 395.939C4.75089 390.816 2.19017 384.894 1.05312 378.627C-4.43251 351.327 12.2807 324.027 33.3517 305.742C61.7026 281.207 94.4626 264.458 124.095 240.437C142.039 225.941 162.751 213.034 185.616 211.549C208.482 210.063 233.962 223.175 239.55 245.558C243.651 262 236.422 279.62 225.041 292.22C213.66 304.82 198.484 313.22 183.617 321.466C158.701 335.346 134.092 347.024 113.637 367.051Z" fill="#D7DEF5"/>
<path opacity="0.4" d="M346.073 276.149C348.83 271.896 347.617 266.213 343.364 263.456C339.11 260.699 333.427 261.912 330.67 266.165C327.913 270.419 329.127 276.102 333.38 278.859C337.633 281.615 343.316 280.402 346.073 276.149Z" stroke="#74BBFB" stroke-width="4.5" stroke-miterlimit="10"/>
<path d="M248.96 234.931L248.857 235.122L248.96 234.931Z" fill="black"/>
<path d="M194.203 19.292C231.442 19.292 261.611 33.2842 261.611 50.5531C261.611 60.7816 251.678 67.7925 243.501 71.8661C237.203 74.9153 230.564 77.1996 223.723 78.6704C214.416 80.7599 204.921 81.9071 195.384 82.0946C194.549 92.2114 190.517 101.8 183.872 109.474C181.363 112.337 178.263 115.009 174.484 115.555C180.68 105.389 183.649 93.5837 183.001 81.6961C170.887 80.87 159 78.0006 147.843 73.2093C138.751 69.2094 126.811 61.859 126.811 50.5236C126.781 33.2842 156.95 19.292 194.203 19.292Z" fill="#1A2578" stroke="black" stroke-width="0.5" stroke-miterlimit="10"/>
<path d="M240.873 48.1034C240.666 50.882 239.407 53.4769 237.353 55.3599C235.299 57.2428 232.605 58.2722 229.819 58.2383C227.033 58.2044 224.365 57.1099 222.357 55.1776C220.35 53.2453 219.154 50.6205 219.014 47.8377C218.822 45.7271 219.428 43.2622 221.287 42.4209C222.264 42.1199 223.32 42.2102 224.231 42.6729C225.143 43.1355 225.839 43.9343 226.173 44.9005C226.827 46.9245 226.679 49.1226 225.76 51.0406C224.558 53.9261 222.471 56.3555 219.8 57.9789C217.129 59.6022 214.011 60.3357 210.896 60.0735C207.788 59.6046 204.902 58.1808 202.638 55.9991C200.375 53.8175 198.845 50.986 198.262 47.8968C197.864 45.7418 198.1 43.1441 199.827 41.9043C201.982 40.4283 205.199 42.1847 205.952 44.8563C206.212 46.1864 206.175 47.5575 205.843 48.8716C205.512 50.1857 204.893 51.4102 204.033 52.4575C202.392 54.6273 200.243 56.3609 197.775 57.5061C195.307 58.6513 192.595 59.173 189.879 59.0256C187.224 59.007 184.624 58.2727 182.351 56.9002C179.399 54.7748 176.447 48.0444 178.809 44.5463C179.014 44.2046 179.301 43.9191 179.643 43.7156C179.986 43.5121 180.374 43.3968 180.772 43.3803C181.324 43.4326 181.843 43.6661 182.248 44.0445C182.753 44.5546 183.151 45.1612 183.417 45.828C183.683 46.4949 183.813 47.2084 183.798 47.9263C183.645 51.0493 182.414 54.0228 180.314 56.3393C178.55 58.3086 176.211 59.6732 173.628 60.2401C171.046 60.8069 168.35 60.5473 165.924 59.4979C163.503 58.3158 161.434 56.5209 159.922 54.2915C158.41 52.0621 157.507 49.4759 157.304 46.7898C157.127 44.7529 157.953 42.0371 159.916 42.1405C161.392 42.2143 162.219 43.8526 162.529 45.3286C162.971 47.4556 162.901 49.6573 162.323 51.7517C161.746 53.8461 160.678 55.7728 159.208 57.3725C157.749 58.8932 155.925 60.0135 153.909 60.6261C151.893 61.2386 149.753 61.3228 147.695 60.8706" stroke="#FFF8F8" stroke-width="0.5" stroke-miterlimit="10"/>
<path d="M265.624 170.504C265.887 170.352 266.178 170.256 266.48 170.224L267.307 170.076L311.984 156.97L275.867 177.766C275.351 178.12 274.834 178.519 274.391 178.903C274.381 178.936 274.381 178.972 274.391 179.006C274.381 179.06 274.381 179.115 274.391 179.168C274.416 179.216 274.445 179.26 274.48 179.301C274.554 179.39 274.583 179.463 274.687 179.581C275.551 180.408 276.359 181.29 277.107 182.223L277.181 182.401L293.8 200.983L295.084 198.666L322.139 149.737L254.613 162.431L264.945 170.755L265.476 170.593C265.476 170.593 265.58 170.519 265.624 170.504Z" fill="#BF0830"/>
<path d="M265.608 173.678L265.445 173.058L265.873 175.227C265.814 174.696 265.711 174.194 265.608 173.678Z" fill="#9DD1C9"/>
<path d="M265.049 170.756L265.241 171.715C265.241 171.715 265.241 171.715 265.241 171.627L265.049 170.756Z" fill="#9DD1C9"/>
<path d="M268.219 400.46C268.78 400.725 269.326 401.006 269.857 401.316C271.772 402.412 273.555 403.724 275.171 405.227H275.348C278.875 405.965 282.432 406.526 286.004 406.969C286.477 405.315 286.969 403.648 287.48 401.965C285.089 401.463 282.713 400.947 280.322 400.386L268.219 400.46Z" fill="white"/>
<path d="M275.217 405.258C278.634 408.499 281.417 412.348 283.423 416.608C283.718 415.663 283.969 414.704 284.22 413.774C284.781 411.56 285.401 409.346 286.05 407.044C282.479 406.601 278.921 406.04 275.394 405.302L275.217 405.258Z" fill="#BF0830"/>
<path d="M273.99 567.438C274.167 567.895 274.33 568.338 274.507 568.781C274.33 568.338 274.167 567.895 273.99 567.438Z" fill="white"/>
<path d="M290.847 545.592C292.072 545.4 293.312 545.238 294.552 545.061C294.286 542.803 294.02 540.441 293.74 538.021L291.836 538.286C283.379 539.526 274.921 540.677 266.449 541.828L268.383 549.135C274.626 548.352 280.825 547.231 287.039 546.183C288.294 545.961 289.563 545.769 290.847 545.592Z" fill="white"/>
<path d="M288.5 562.817C291.083 561.563 293.636 560.249 296.146 558.847C296.146 558.744 296.146 558.655 296.146 558.552C296.067 557.932 295.993 557.283 295.924 556.604V556.22C295.924 555.615 295.791 555.01 295.718 554.375V554.05C295.718 553.386 295.57 552.722 295.496 552.028V551.733C295.349 550.478 295.201 549.165 295.039 547.836C294.935 546.921 294.832 546.006 294.714 545.062C293.474 545.239 292.234 545.401 291.009 545.593C289.784 545.785 288.456 545.962 287.201 546.183C280.987 547.231 274.788 548.353 268.545 549.135L268.988 550.818L269.076 551.113C269.209 551.615 269.357 552.131 269.504 552.589L269.593 552.928C269.74 553.475 269.903 554.035 270.065 554.596V554.744C270.405 555.969 270.759 557.194 271.128 558.39C271.16 558.524 271.2 558.657 271.246 558.788L271.644 560.116L271.822 560.677L272.191 561.843C272.264 562.035 272.323 562.227 272.382 562.419C272.441 562.611 272.633 563.172 272.751 563.541C272.87 563.91 272.884 563.924 272.943 564.102L273.342 565.268C273.342 565.415 273.445 565.578 273.504 565.725C273.696 566.256 273.873 566.788 274.065 567.29C274.242 567.747 274.405 568.19 274.582 568.633C279.318 566.936 283.964 564.995 288.5 562.817Z" fill="#BF0830"/>
<path d="M237.919 451.543L238.037 450.908C226.237 452.543 214.334 453.318 202.421 453.226C201.742 453.58 201.034 453.905 200.311 454.244C196.277 456.157 192.009 457.531 187.617 458.333C183.75 456.192 179.928 453.978 176.193 451.646C171.273 448.576 166.457 445.3 161.744 441.816C158.792 439.632 155.928 437.389 153.139 435.012C142.183 425.78 132.261 415.388 123.545 404.017C122.955 403.235 122.379 402.438 121.804 401.641C121.509 401.257 121.228 400.888 120.948 400.489H83.0742C83.2513 401.168 83.4284 401.862 83.6351 402.541C84.1074 404.209 84.6092 405.847 85.1111 407.471C88.4763 417.802 91.2216 429.832 95.2805 440.71C97.5435 446.84 101.289 452.316 106.182 456.647C111.075 460.979 116.964 464.033 123.324 465.535H123.531C132.762 467.625 142.135 469.026 151.574 469.727H151.648L153.95 469.889L156.902 470.081L160.312 470.258L163.264 470.406L166.57 470.509L169.61 470.583C170.644 470.583 171.677 470.583 172.71 470.583H175.662H182.038L187.647 470.509H189.654L194.318 470.377L196.636 470.288C198.112 470.288 199.72 470.14 201.255 470.052L203.366 469.934C205.565 469.801 207.794 469.639 209.934 469.447C215.705 468.93 221.447 468.177 227.129 467.144C233.475 466.017 239.705 464.312 245.741 462.052C244.708 456.576 243.749 451.927 243.247 450.539C241.431 450.967 239.704 451.307 237.919 451.543Z" fill="#BF0830"/>
<path d="M200.311 454.245C201.034 453.906 201.787 453.581 202.421 453.227H200.768C195.263 453.227 189.758 452.917 184.267 452.474C181.581 452.253 178.88 451.987 176.193 451.647C179.928 453.979 183.75 456.193 187.617 458.334C192.009 457.532 196.277 456.158 200.311 454.245Z" fill="#222221"/>
<path d="M296.369 317.792C295.283 319.153 293.914 320.262 292.357 321.042C290.8 321.822 289.092 322.254 287.351 322.308C278.599 322.205 275.44 312.67 277.285 305.216C264.488 302.678 252.621 308.936 242.969 317.231C239.072 320.581 235.22 324.05 231.471 327.636H300.472C299.646 324.154 298.261 320.83 296.369 317.792Z" fill="#1A2578"/>
<path d="M280.353 400.461C282.744 401.022 285.12 401.538 287.511 402.04L290.08 402.601C290.271 401.907 290.449 401.125 290.64 400.461H280.309H280.353Z" fill="#1A2578"/>
<path d="M202.097 378.807C202.097 380.962 201.964 383.131 201.846 385.286C203.573 386.054 205.285 386.836 206.967 387.692H214.952L222.686 336.55C214.685 344.958 207.745 354.317 202.023 364.416C202.023 367.722 202.023 371.029 202.023 374.335C202.111 375.825 202.126 377.316 202.097 378.807Z" fill="#1A2578"/>
<path d="M287.35 322.308C289.091 322.253 290.799 321.821 292.356 321.041C293.913 320.262 295.282 319.153 296.368 317.791C292.89 312.373 287.644 308.327 281.52 306.338C280.138 305.857 278.722 305.482 277.284 305.216C275.38 312.669 278.598 322.204 287.35 322.308Z" fill="#222221"/>
<path d="M290.539 439.825C294.037 440.342 300.266 441.95 305.033 441.375C306.544 441.252 307.997 440.744 309.255 439.899C313.151 436.947 309.889 434.954 306.155 433.198C304.517 432.416 302.79 431.722 301.535 430.999C296.34 428.047 291.085 425.287 285.846 422.482C287.629 428.082 288.869 433.84 289.55 439.677L290.539 439.825Z" fill="#222221"/>
<path d="M293.741 538.022L294.184 537.948C300.678 536.988 301.076 537.18 300.412 530.642C299.851 524.915 299.054 519.203 298.375 513.476C297.883 509.353 297.391 505.225 296.899 501.093C294.725 482.791 292.545 464.484 290.361 446.172C290.11 444.002 289.844 441.847 289.549 439.692C288.868 433.855 287.627 428.097 285.844 422.497C285.682 422.04 285.549 421.567 285.372 421.095C284.885 419.767 284.309 418.453 283.689 417.154L283.04 417.774C282.205 418.491 281.264 419.073 280.25 419.501C278.008 420.401 275.52 420.48 273.225 419.722C271.615 419.136 270.162 418.185 268.981 416.943C267.801 415.701 266.924 414.202 266.421 412.564C266.191 411.908 266.004 411.237 265.86 410.557C265.598 409.317 265.615 408.034 265.909 406.802C266.202 405.569 266.765 404.417 267.557 403.428C268.215 402.613 268.991 401.901 269.86 401.317C269.328 401.007 268.782 400.727 268.221 400.461H164.682L163.206 400.859C151.59 404.254 140.786 404.048 128.742 404.048H123.605C132.321 415.419 142.243 425.811 153.199 435.043C155.988 437.419 158.881 439.663 161.804 441.847C166.468 445.331 171.284 448.607 176.253 451.677C178.94 452.017 181.641 452.282 184.327 452.504C189.818 452.947 195.323 453.183 200.828 453.257H202.481C214.394 453.349 226.297 452.574 238.097 450.939C239.14 445.616 240.193 440.288 241.255 434.954C241.826 440.209 242.598 445.429 243.573 450.615H243.322C243.823 452.002 244.798 456.651 245.816 462.127C247.587 471.559 249.55 483.396 249.742 484.975C252.059 504.428 256.842 523.483 261.55 542.538L266.435 541.859C274.907 540.708 283.365 539.557 291.822 538.317L293.741 538.022Z" fill="#1A2578"/>
<path d="M330.786 573.681C319.303 569.105 304.322 569.887 296.706 558.537L296.145 558.847C293.636 560.323 291.083 561.563 288.5 562.817C283.941 565.027 279.271 566.998 274.507 568.721L273.4 569.149C274.36 568.81 274.876 575.939 275.098 576.736C275.762 579.171 276.957 583.068 279.393 584.263C279.547 584.326 279.705 584.38 279.865 584.426H286.389C300.278 583.54 314.122 584.514 328.011 583.481C329.99 583.509 331.934 582.96 333.605 581.902C337.133 579.201 334.033 574.979 330.786 573.681Z" fill="#222221"/>
<path d="M151.131 259.226C151.162 259.171 151.202 259.121 151.249 259.078C151.53 258.783 151.781 258.458 152.046 258.148H150.57C150.762 258.503 150.954 258.857 151.175 259.196L151.131 259.226Z" fill="#1A2578"/>
<path d="M120.947 400.46C121.228 400.859 121.508 401.228 121.803 401.612C122.379 402.409 122.955 403.206 123.545 403.988H128.681C140.725 403.988 151.529 404.195 163.145 400.8L164.621 400.401H120.947V400.46Z" fill="#1A2578"/>
<path d="M143.236 383.678C138.719 383.102 134.188 382.512 129.686 381.759C124.219 380.91 118.822 379.657 113.539 378.01C111.159 377.272 108.844 376.339 106.617 375.22C103.075 368.18 99.7094 361.022 96.2852 353.878V354.527C98.632 359.664 101.082 364.859 103.517 369.892C105.687 374.438 107.945 378.955 110.248 383.368C111.886 386.423 113.613 389.449 115.473 392.401H175.132C174.065 391.938 173.029 391.405 172.032 390.807C163.294 385.552 153.154 384.932 143.236 383.678Z" fill="#1A2578"/>
<path d="M97.821 345.806C97.241 348.123 96.7779 350.468 96.4336 352.831C97.109 351.429 98.0173 350.152 99.1199 349.053C105.614 342.603 119.016 345.924 126.691 348.64C129.532 349.658 132.312 350.841 135.016 352.182L135.311 352.33C140.418 354.883 145.333 357.865 150.218 360.861L168.712 372.196C171.785 374.201 175.025 375.939 178.394 377.392C181.422 378.496 184.506 379.437 187.634 380.211C189.907 380.86 192.062 381.598 194.364 382.38C196.888 383.281 199.397 384.255 201.848 385.332C201.966 383.177 202.054 381.008 202.098 378.853C202.098 377.377 202.098 375.901 202.098 374.425C202.098 371.119 202.098 367.813 202.098 364.506C202.098 363.458 202.098 362.425 202.098 361.377C201.907 349.968 201.582 338.559 202.246 327.164C203.058 319.076 203.309 310.825 203.397 302.707C215.294 302.191 227.411 299.844 239.337 298.383C249.669 297.128 259.824 296.302 267.041 287.874C267.868 286.952 268.577 285.931 269.152 284.833C269.435 284.274 269.682 283.698 269.89 283.106C269.565 283.697 269.226 284.287 268.857 284.863C267.873 286.546 266.644 288.073 265.211 289.394C256.783 296.7 247.499 285.114 245.861 277.335C245.3 274.499 245.131 271.598 245.359 268.716C245.54 266.237 245.875 263.772 246.363 261.336C230.422 261.247 214.541 260.701 198.615 260.067C192.608 259.83 187.782 259.845 182.719 259.417L183.634 259.653L184.549 259.83C184.575 262.49 183.792 265.094 182.306 267.299C181.615 268.334 180.752 269.243 179.752 269.985C176.143 272.277 171.879 273.314 167.62 272.937C163.527 272.743 159.514 271.74 155.812 269.985C154.028 269.145 152.336 268.121 150.764 266.93C149.054 265.59 147.604 263.95 146.484 262.089C145.893 261.188 145.362 260.244 144.816 259.27C141.877 259.951 139.017 260.941 136.285 262.221C130.16 265.224 124.708 269.437 120.256 274.605C117.733 277.55 115.628 280.828 113.998 284.346C111.093 290.912 108.901 297.77 107.459 304.803L97.821 345.806Z" fill="#1A2578"/>
<path d="M277.594 176.422L278.096 176.112H277.948C277.839 176.225 277.72 176.329 277.594 176.422Z" fill="white"/>
<g filter="url(#filter0_d_187_5652)">
<path d="M245.856 277.248C247.524 285.026 256.779 296.612 265.206 289.306C266.639 287.985 267.868 286.458 268.852 284.775C269.221 284.199 269.561 283.609 269.885 283.019C275.878 272.274 275.789 259.831 275.42 247.713C275.42 246.415 275.332 245.116 275.273 243.802C274.918 236.142 274.151 228.496 273.088 220.895C272.013 213.794 271.519 206.616 271.612 199.434C271.607 198.894 271.662 198.354 271.775 197.825C272.073 196.95 272.517 196.132 273.088 195.405C274.503 193.381 275.63 191.17 276.439 188.837C276.985 187.213 278.003 184.114 277.191 182.402L277.118 182.224C276.37 181.291 275.561 180.409 274.697 179.582C274.594 179.464 274.564 179.391 274.49 179.302C274.456 179.261 274.426 179.217 274.402 179.169V179.258L274.549 179.494C274.732 179.755 274.899 180.026 275.051 180.306C275.051 180.778 274.313 181.56 273.752 182.106L273.28 182.593L272.158 183.833C271.57 184.511 270.912 185.124 270.195 185.663L269.944 185.811C269.609 186.037 269.247 186.22 268.867 186.357L268.291 186.49C267.843 184.896 267.503 183.274 267.273 181.634C266.992 180.35 266.727 179.066 266.461 177.782V177.56C266.299 176.749 266.122 175.937 265.959 175.125C265.324 175.543 264.744 176.039 264.232 176.601C260.019 181.694 257.908 188.203 258.328 194.8C258.503 203.28 257.711 211.753 255.967 220.054C254.122 229.544 251.539 238.858 249.354 248.274C248.41 252.304 247.214 256.673 246.403 261.115C245.914 263.552 245.579 266.017 245.399 268.495C245.144 271.42 245.298 274.366 245.856 277.248Z" fill="white"/>
</g>
<path d="M115.486 392.4C113.627 389.448 111.9 386.423 110.261 383.367C107.9 378.94 105.701 374.438 103.531 369.892C101.096 364.785 98.6455 359.663 96.2987 354.527V353.877L96.0921 353.464C96.1807 353.243 96.2987 353.036 96.3873 352.83C96.7316 350.466 97.1947 348.121 97.7747 345.804L107.428 304.846C108.869 297.812 111.061 290.954 113.966 284.389C111.457 284.654 108.984 285.183 106.586 285.968C94.9408 289.894 86.7344 299.96 82.0556 311.576C81.2011 313.694 80.462 315.857 79.8416 318.056C79.8416 318.056 79.8416 318.174 79.8416 318.248C79.576 319.222 79.325 320.211 79.1036 321.199C79.073 321.354 79.0336 321.507 78.9856 321.657C78.7494 322.764 78.528 323.871 78.3361 324.978C74.8529 345.863 76.1074 370.526 81.0077 392.415H115.442L115.486 392.4Z" fill="#BF0830"/>
<path d="M197.256 391.059V389.465C197.319 388.938 197.586 388.458 198 388.126C198.414 387.795 198.942 387.64 199.47 387.694H206.968C205.285 386.838 203.573 386.055 201.846 385.288C199.396 384.211 196.887 383.236 194.363 382.336C192.134 381.554 189.935 380.86 187.632 380.166C184.504 379.392 181.42 378.451 178.393 377.347C175.023 375.895 171.784 374.157 168.71 372.152L150.216 360.861C145.331 357.909 140.416 354.883 135.309 352.33L135.014 352.182C132.31 350.841 129.531 349.658 126.689 348.64C119.014 345.924 105.612 342.603 99.1182 349.053C98.0157 350.151 97.1074 351.429 96.4319 352.831C96.3434 353.038 96.2253 353.245 96.1367 353.466L96.3434 353.879C99.7086 361.023 103.074 368.181 106.675 375.222C108.902 376.341 111.217 377.274 113.597 378.011C118.88 379.659 124.277 380.912 129.745 381.76C134.173 382.513 138.778 383.104 143.294 383.679C153.213 384.934 163.353 385.554 172.105 390.808C173.102 391.406 174.138 391.939 175.205 392.402H198.038C197.807 392.26 197.615 392.062 197.479 391.828C197.343 391.594 197.266 391.33 197.256 391.059Z" fill="white"/>
<path d="M116.579 400.461H328.632V392.402H319.363V392.86H199.469C199.007 392.864 198.553 392.742 198.156 392.506L198.038 392.432H65.584V400.491H116.579V400.461Z" fill="#E0ADAD"/>
<path d="M292.899 391.546H214.362L214.879 388.107L214.953 387.694H199.47C198.942 387.64 198.415 387.795 198 388.127C197.586 388.458 197.319 388.939 197.256 389.465V391.059C197.266 391.33 197.343 391.594 197.479 391.829C197.616 392.063 197.808 392.26 198.038 392.402L198.156 392.476C198.553 392.712 199.008 392.835 199.47 392.831H319.363V390.631L319.23 391.546H292.899Z" fill="black"/>
<g filter="url(#filter1_d_187_5652)">
<path d="M214.862 388.107L214.346 391.546H319.214L319.346 390.631L328.202 332.419C328.303 331.836 328.275 331.237 328.122 330.666C327.969 330.094 327.693 329.562 327.314 329.108C326.935 328.653 326.462 328.286 325.927 328.032C325.392 327.778 324.809 327.643 324.217 327.637H227.644C226.628 327.651 225.651 328.028 224.888 328.699C224.124 329.37 223.626 330.291 223.482 331.297L222.685 336.552L214.951 387.694L214.862 388.107Z" fill="white"/>
</g>
<path d="M151.133 259.225C154.232 263.918 160.992 266.796 166.247 267.372C169.522 267.899 172.881 267.41 175.87 265.97C177.082 265.274 178.09 264.273 178.794 263.066C179.499 261.859 179.875 260.489 179.885 259.092C179.885 258.929 179.885 258.767 179.885 258.605C180.026 256.795 180.307 254.999 180.726 253.232L171.87 247.151H172.136L172.741 247.284C175.824 247.946 179.003 248.021 182.113 247.505C181.744 248.79 181.405 250.088 181.11 251.402C181.257 250.856 181.804 249.277 182.32 247.668C184.381 246.559 186.116 244.931 187.353 242.945C189.123 239.918 190.338 236.599 190.94 233.144C191.914 228.598 192.224 217.499 190.763 211.551C190.411 211.758 190.041 211.931 189.656 212.067C184.357 214.045 178.055 210.68 172.918 213.027C167.782 215.374 168.062 220.082 165.701 224.097C165.428 224.534 165.095 224.932 164.712 225.277C163.885 224.115 162.72 223.235 161.376 222.757C160.033 222.28 158.574 222.227 157.199 222.606C156.983 222.666 156.771 222.74 156.564 222.827C152.255 224.628 150.779 231.594 153.804 235.093C154.534 235.909 155.458 236.529 156.491 236.893L156.801 237.011C157.641 237.269 158.523 237.359 159.398 237.277C159.398 237.395 159.398 237.469 159.398 237.513C159.398 238.369 159.398 239.402 158.749 239.875C158.383 240.087 157.957 240.17 157.539 240.111C157.295 240.082 157.053 240.038 156.815 239.978C156.815 241.454 156.815 242.93 156.815 244.406C156.815 245.026 156.815 245.661 156.682 246.28C156.682 246.472 156.682 246.664 156.682 246.856C156.682 247.328 156.564 247.815 156.491 248.332L156.358 249.011C156.269 249.483 156.151 249.956 156.033 250.487L155.856 251.122C155.654 251.814 155.413 252.494 155.133 253.158C154.67 254.271 154.122 255.347 153.494 256.376C153.08 257.015 152.632 257.631 152.151 258.221C151.886 258.531 151.635 258.856 151.354 259.151C151.276 259.16 151.201 259.185 151.133 259.225Z" fill="white"/>
<path d="M158.776 239.918C159.485 239.446 159.455 238.442 159.426 237.557C159.426 237.557 159.426 237.439 159.426 237.321C158.551 237.403 157.668 237.312 156.828 237.055L156.518 236.937C155.486 236.572 154.562 235.953 153.832 235.136C150.806 231.638 152.282 224.672 156.592 222.871C156.799 222.784 157.011 222.71 157.227 222.649C158.602 222.27 160.06 222.323 161.404 222.801C162.748 223.279 163.912 224.159 164.739 225.321C165.122 224.975 165.455 224.578 165.728 224.14C168.09 220.126 167.972 215.358 172.946 213.07C177.92 210.783 184.385 214.089 189.683 212.111C190.068 211.975 190.439 211.802 190.79 211.594C192.175 210.819 193.331 209.691 194.14 208.325C194.948 206.959 195.382 205.403 195.395 203.816C195.285 201.935 194.82 200.092 194.023 198.384C193.294 196.237 191.986 194.332 190.244 192.879C187.75 191.049 184.34 191.019 181.388 191.551C178.397 192.337 175.346 192.88 172.267 193.174C168.341 193.174 164.415 191.698 160.562 192.436C158.742 192.787 157.047 193.612 155.648 194.828C154.249 196.043 153.195 197.606 152.592 199.359C151.515 202.621 151.411 205.794 149.389 208.716C147.367 211.639 145.227 214.266 145.168 218.222C145.168 221.439 147.515 224.435 148.71 227.299C149.773 229.852 150.186 232.642 151.456 235.136C151.936 236.301 152.67 237.344 153.605 238.189C154.539 239.034 155.651 239.66 156.858 240.022C157.096 240.081 157.337 240.126 157.581 240.155C157.995 240.21 158.415 240.127 158.776 239.918Z" fill="black"/>
<path d="M172.767 247.329L172.162 247.196H171.896L180.752 253.277C180.841 252.805 180.929 252.333 181.033 251.801C181.064 251.695 181.089 251.586 181.107 251.477C181.402 250.163 181.741 248.864 182.11 247.58C179.008 248.082 175.838 247.997 172.767 247.329Z" fill="#222221"/>
<path d="M265.932 175.198C266.094 176.01 266.272 176.822 266.434 177.634V177.855C266.7 179.139 266.965 180.423 267.246 181.707C267.476 183.347 267.816 184.969 268.264 186.563L268.84 186.431C269.22 186.293 269.582 186.11 269.917 185.884L270.168 185.737C270.885 185.197 271.543 184.584 272.131 183.907L273.253 182.667L273.725 182.18C274.286 181.634 275.024 180.851 275.024 180.379C274.872 180.099 274.705 179.828 274.522 179.567L274.375 179.331V179.243C274.365 179.189 274.365 179.134 274.375 179.08C274.364 179.047 274.364 179.011 274.375 178.977C274.862 178.593 275.378 178.195 275.851 177.84L311.968 157.044L267.29 170.151L266.463 170.298C266.162 170.331 265.87 170.426 265.607 170.579C265.607 170.579 265.607 170.579 265.504 170.667L264.973 170.83L265.15 171.7C265.15 171.7 265.15 171.7 265.15 171.789C265.194 172.244 265.283 172.694 265.415 173.132L265.578 173.752C265.711 174.195 265.814 174.697 265.932 175.198ZM277.592 176.423C277.721 176.312 277.84 176.188 277.946 176.054H278.094L277.592 176.423Z" fill="black"/>
<path d="M150.776 266.958C152.348 268.149 154.04 269.173 155.824 270.013C159.526 271.768 163.54 272.771 167.632 272.965C171.891 273.342 176.155 272.305 179.765 270.013C180.764 269.272 181.628 268.363 182.318 267.327C183.805 265.122 184.587 262.518 184.562 259.859L183.646 259.682L182.731 259.446C181.905 259.254 181.078 259.017 180.266 258.752L179.971 258.663C179.971 258.826 179.971 258.988 179.971 259.15C179.961 260.548 179.585 261.918 178.881 263.124C178.176 264.331 177.168 265.332 175.957 266.028C172.967 267.468 169.609 267.957 166.333 267.431C161.079 266.855 154.319 263.977 151.219 259.283C150.998 258.944 150.806 258.589 150.614 258.235C150.614 258.117 150.481 257.999 150.422 257.866C148.632 258.496 146.796 258.989 144.932 259.342C145.478 260.316 146.009 261.261 146.599 262.161C147.693 263.998 149.108 265.623 150.776 266.958ZM149.522 260.789C149.713 260.658 149.895 260.515 150.068 260.361C149.895 260.515 149.713 260.658 149.522 260.789ZM150.688 259.77L150.319 260.124L150.688 259.77Z" fill="black"/>
<path d="M269.905 401.346C269.036 401.93 268.26 402.641 267.602 403.456C266.81 404.445 266.247 405.598 265.954 406.83C265.66 408.063 265.644 409.345 265.905 410.585C266.049 411.266 266.236 411.936 266.466 412.593C266.97 414.231 267.846 415.729 269.027 416.972C270.207 418.214 271.66 419.165 273.27 419.751C275.565 420.508 278.053 420.43 280.296 419.53C281.309 419.102 282.251 418.519 283.085 417.803L283.735 417.183L283.469 416.637C281.463 412.376 278.68 408.527 275.263 405.287C273.635 403.771 271.837 402.448 269.905 401.346Z" fill="#222221"/>
<path d="M243.261 450.63H243.512C242.528 445.434 241.756 440.214 241.195 434.97C240.142 440.303 239.089 445.631 238.036 450.954L237.918 451.589C239.704 451.309 241.431 450.969 243.261 450.63Z" fill="#222221"/>
<path d="M27.1074 584.339H635.459" stroke="black" stroke-width="0.5" stroke-miterlimit="10"/>
<path d="M159.766 226.614C159.221 226.676 158.695 226.846 158.218 227.115C157.741 227.384 157.323 227.746 156.988 228.18C156.653 228.613 156.409 229.11 156.271 229.639C156.132 230.169 156.1 230.722 156.179 231.264" fill="white"/>
<path d="M159.766 226.614C159.221 226.676 158.695 226.846 158.218 227.115C157.741 227.384 157.323 227.746 156.988 228.18C156.653 228.613 156.409 229.11 156.271 229.639C156.132 230.169 156.1 230.722 156.179 231.264" stroke="#222221" stroke-width="0.5" stroke-miterlimit="10"/>
<path opacity="0.4" d="M640.903 366.427C643.283 362.755 642.235 357.85 638.564 355.47C634.892 353.09 629.986 354.137 627.606 357.809C625.226 361.481 626.273 366.386 629.945 368.766C633.617 371.146 638.523 370.099 640.903 366.427Z" stroke="#FFDA32" stroke-width="4.5" stroke-miterlimit="10"/>
<g filter="url(#filter2_d_187_5652)">
<path d="M390.244 96.001C390.272 94.907 390.363 93.8155 390.518 92.7322C390.518 92.6043 390.518 92.4765 390.518 92.3487C390.664 91.326 390.865 90.3034 391.084 89.299L391.194 88.7511C391.413 87.765 391.669 86.7789 391.943 85.811L392.107 85.2449C392.381 84.2588 392.673 83.2726 392.983 82.3048C392.983 82.0856 393.111 81.8847 393.184 81.6656C393.531 80.5516 393.897 79.4377 394.244 78.3055C394.444 77.7028 394.627 77.0819 394.828 76.4793C395.029 75.8767 395.248 75.0549 395.449 74.3427C395.558 73.9774 395.686 73.6122 395.778 73.2287C395.869 72.8452 396.179 71.9321 396.362 71.293C396.472 70.9143 396.564 70.5304 396.636 70.1425C396.706 68.9948 397.017 67.8748 397.549 66.8554C397.768 66.5518 397.958 66.2277 398.115 65.8875C398.204 65.7221 398.251 65.5369 398.251 65.3488C398.251 65.1607 398.204 64.9756 398.115 64.8101C397.899 64.5956 397.625 64.4486 397.327 64.387C397.028 64.3253 396.718 64.3518 396.435 64.4631C396.185 64.5353 395.94 64.6269 395.704 64.737C395.101 65.0538 394.567 65.4885 394.134 66.0154C393.882 66.3102 393.651 66.6213 393.44 66.9467C392.679 68.51 391.688 69.9504 390.5 71.2199C389.897 71.6999 389.191 72.0314 388.436 72.1878C388.352 71.869 388.285 71.546 388.235 71.2199H370.686C370.12 78.835 369.097 86.7241 367.746 94.7409C367.655 95.2705 367.582 95.7818 367.49 96.2932C375.116 97.0811 382.779 97.4408 390.445 97.3706C390.244 96.9506 390.244 96.4758 390.244 96.001Z" fill="white"/>
</g>
<path d="M390.355 71.2567C390.355 71.2567 390.446 71.2567 390.464 71.2567C391.652 69.9872 392.643 68.5468 393.404 66.9835C393.733 66.2713 394.043 65.5774 394.354 64.9565C394.538 64.8138 394.756 64.7219 394.987 64.6898C395.218 64.6578 395.453 64.6868 395.669 64.7738C395.905 64.6637 396.149 64.5721 396.399 64.4999C396.683 64.3886 396.993 64.3621 397.291 64.4237C397.589 64.4853 397.863 64.6324 398.079 64.8469C398.169 65.0123 398.216 65.1975 398.216 65.3856C398.216 65.5737 398.169 65.7589 398.079 65.9243C397.922 66.2645 397.733 66.5886 397.513 66.8922C396.981 67.9116 396.67 69.0316 396.6 70.1793C396.528 70.5672 396.437 70.9511 396.326 71.3298H436.337V0.109375C436.337 0.109375 383.853 32.3594 379.726 35.7378L323.115 0.109375V71.3298H390.263L390.355 71.2567Z" fill="#3442AC"/>
<path d="M436.429 0H323.207L379.818 35.6285C383.945 32.25 436.429 0 436.429 0Z" fill="#010209"/>
<path d="M394.352 64.8838C394.041 65.5047 393.731 66.1986 393.402 66.9108C393.613 66.5854 393.845 66.2743 394.096 65.9795C394.529 65.4526 395.063 65.0179 395.667 64.7012C395.451 64.6141 395.216 64.5851 394.985 64.6172C394.754 64.6492 394.536 64.7411 394.352 64.8838Z" fill="#1A2578"/>
<path d="M523.298 153.106C523.231 154.28 523.231 155.457 523.298 156.631C523.289 154.717 523.436 152.805 523.737 150.915C523.828 150.257 523.938 149.582 524.029 148.924C524.12 148.267 524.23 147.354 524.339 146.568C524.23 147.134 524.102 147.901 523.974 148.705C523.554 150.604 523.317 152.777 523.298 153.106Z" fill="white"/>
<path d="M497.422 183.804C502.481 189.009 511.265 191.876 517.601 187.219C521.506 184.041 523.988 179.443 524.504 174.436C524.395 170.565 523.902 166.711 523.573 162.876C523.573 162.876 514.753 161.507 508.964 160.192C510.16 159.884 511.332 159.488 512.47 159.005C515.325 157.814 517.872 155.988 519.916 153.665C521.96 151.342 523.448 148.585 524.267 145.601H524.431C524.431 145.199 524.541 144.797 524.577 144.396C524.614 143.994 524.742 143.921 524.796 143.665C524.979 142.807 525.125 141.948 525.29 141.09C526.337 140.949 527.338 140.569 528.216 139.98C529.093 139.392 529.825 138.61 530.354 137.695C530.883 136.78 531.195 135.756 531.267 134.702C531.339 133.647 531.168 132.591 530.768 131.612C530.588 131.071 530.316 130.564 529.965 130.115C529.208 129.17 528.192 128.466 527.043 128.088C526.226 127.785 525.355 127.66 524.486 127.723C523.601 127.81 522.742 128.076 521.964 128.507C521.185 128.937 520.502 129.521 519.957 130.225C519.93 129.707 519.93 129.189 519.957 128.672C520.067 126.846 520.195 125.02 520.304 123.194C520.449 122.053 520.38 120.895 520.103 119.779C519.772 118.888 519.244 118.083 518.557 117.425C517.871 116.768 517.045 116.274 516.14 115.98C514.329 115.398 512.437 115.102 510.534 115.104C504.542 115.065 498.568 114.453 492.693 113.278C491.846 113.067 491.01 112.811 490.191 112.511C488.409 115.104 487.247 118.072 486.794 121.185C486.283 124.034 486.447 128.928 484.968 131.649C484.813 133.074 484.74 134.507 484.749 135.94C484.749 137.474 484.84 142.478 485.059 144.012C486.045 150.86 488.839 156.101 493.679 158.822C493.679 159.041 493.679 159.242 493.679 159.461C493.277 164.191 492.857 168.939 492.455 173.669C492.455 174.016 492.455 174.381 492.364 174.746C492.772 176.312 493.386 177.817 494.19 179.221C495.028 180.904 496.118 182.45 497.422 183.804Z" fill="white"/>
<path d="M512.436 158.949C511.299 159.431 510.126 159.828 508.93 160.136C514.755 161.451 523.539 162.82 523.539 162.82C523.539 161.25 523.283 158.839 523.21 156.648C523.143 155.474 523.143 154.297 523.21 153.123C523.21 152.795 523.539 150.621 523.831 148.722C523.959 147.919 524.087 147.152 524.196 146.586C524.223 146.264 524.303 145.949 524.434 145.654H524.306H524.142C523.318 148.609 521.837 151.339 519.81 153.641C517.783 155.943 515.262 157.758 512.436 158.949Z" fill="#161111"/>
<path d="M490.228 112.473C491.048 112.772 491.883 113.028 492.73 113.24C498.606 114.415 504.58 115.027 510.572 115.066C512.475 115.064 514.366 115.36 516.178 115.942C517.082 116.236 517.909 116.73 518.595 117.387C519.281 118.045 519.81 118.85 520.141 119.741C520.418 120.857 520.486 122.015 520.342 123.156C520.232 124.982 520.104 126.808 519.995 128.634C519.967 129.151 519.967 129.669 519.995 130.186C520.54 129.483 521.222 128.899 522.001 128.468C522.78 128.038 523.638 127.772 524.524 127.685C525.392 127.622 526.264 127.746 527.08 128.05C528.23 128.428 529.245 129.132 530.002 130.077C530.354 130.526 530.626 131.033 530.806 131.574C531.051 130.894 531.252 130.199 531.408 129.493C532.139 126.165 532.688 122.8 533.052 119.412C533.6 115.834 533.42 112.181 532.522 108.674C531.724 106.321 530.458 104.154 528.801 102.303C527.144 100.451 525.13 98.9538 522.88 97.8999C519.286 96.4706 515.444 95.7692 511.576 95.8363L497.77 94.9963C495.173 94.6899 492.54 94.9388 490.046 95.7268C489.087 96.1032 488.221 96.6825 487.507 97.4251C486.319 98.982 485.53 100.807 485.212 102.74C484.893 104.673 485.055 106.654 485.681 108.51C483.271 112.363 483.636 118.335 483.855 122.626C483.834 125.518 483.986 128.409 484.312 131.282C484.344 131.619 484.437 131.946 484.585 132.25C484.747 132.039 484.887 131.812 485.005 131.574C486.521 128.853 486.357 123.959 486.832 121.11C487.29 118.01 488.452 115.055 490.228 112.473Z" fill="#161111"/>
<path d="M552.168 404.312C553.428 426.847 553.994 449.418 554.652 471.88C555.333 495.146 555.857 518.417 556.222 541.694C556.587 564.972 556.794 588.243 556.843 611.509C556.843 623.147 556.843 634.786 556.843 646.425C556.843 652.086 556.843 657.765 556.752 663.427V666.915C560.404 666.421 566.503 665.362 566.595 664.34C569.864 628.145 569.736 599.054 570.484 561.034C571.051 532.454 568.202 497.337 568.987 469.305C569.827 439.155 570.448 410.028 565.682 380.061C564.53 373.37 563.006 366.749 561.116 360.229C557.847 360.502 552.661 360.795 546.635 361.105C550.196 375.258 551.365 390.123 552.168 404.312Z" fill="#1A2578"/>
<path d="M498.921 432.582C498.793 433.02 498.647 433.678 498.482 434.408L498.921 432.582Z" fill="#1A2578"/>
<path d="M551.677 667.499C551.677 665.581 551.768 663.645 551.768 661.728C551.768 655.409 551.768 649.073 551.878 642.754V642.042C551.878 629.198 551.878 616.366 551.878 603.546C551.72 557.6 550.977 511.654 549.65 465.708C549.011 443.337 548.499 420.948 547.148 398.614C546.393 386.109 544.757 373.672 542.254 361.397C524.303 362.237 501.713 362.968 498.426 362.876C487.021 362.625 475.642 361.686 464.35 360.064C458.871 359.242 453.484 358.238 448.115 357.051C446.179 356.612 444.225 355.864 442.271 355.225C439.313 369.122 438.016 383.329 436.099 398.432C432.24 428.795 428.228 459.133 424.065 489.448C416.151 547.057 407.696 604.593 398.699 662.057C401.42 662.714 404.178 663.298 406.88 663.883C410.192 664.504 413.516 665.009 416.851 665.399C424.128 666.19 431.459 666.361 438.765 665.91C442.107 665.727 445.449 665.453 448.773 665.052C459.121 612.823 470.194 560.735 481.991 508.787C485.88 491.639 489.295 474.765 492.948 458.184C492.747 458.531 492.528 458.75 492.29 458.732C492.29 457.088 492.29 455.463 492.29 453.837C492.509 451.555 492.783 449.272 493.057 446.989C493.733 441.511 493.97 435.832 494.664 430.28C495.358 424.728 496.107 419.67 497.02 414.411C497.422 412.164 497.805 409.918 498.116 407.672C498.116 407.416 498.207 407.142 498.243 406.887C498.371 409.991 498.408 413.315 498.444 416.639C498.444 422.336 498.444 428.034 498.828 432.709C502.973 472.994 506.552 513.352 509.054 553.783C510.272 574.407 511.246 595.03 511.976 615.654C512.524 632.765 515.72 651.355 515.026 668.12C517.852 668.601 520.707 668.894 523.572 668.996C532.962 669.053 542.347 668.553 551.677 667.499Z" fill="#1A2578"/>
<path d="M556.831 646.517C556.831 634.878 556.831 623.239 556.831 611.6C556.831 588.335 556.624 565.064 556.21 541.786C555.796 518.509 555.26 495.237 554.603 471.972C553.945 449.419 553.379 426.847 552.119 404.404C551.316 390.215 550.147 375.35 546.641 361.288L542.258 361.489C544.761 373.764 546.397 386.201 547.152 398.706C548.503 421.04 548.978 443.429 549.654 465.799C550.969 511.721 551.711 557.668 551.882 603.638C551.882 616.482 551.882 629.314 551.882 642.134V642.846C551.882 649.165 551.882 655.501 551.772 661.82C551.772 663.737 551.772 665.673 551.681 667.591L553.617 667.445H554.347C554.694 667.445 555.589 667.317 556.739 667.152V663.664C556.794 657.857 556.812 652.251 556.831 646.517Z" fill="black"/>
<g filter="url(#filter3_d_187_5652)">
<path d="M568.004 298.652H566.361C564.763 298.57 563.178 298.325 561.631 297.922C561.284 297.812 560.973 297.666 560.663 297.538L560.827 302.414C559.987 302.706 559.111 302.962 558.234 303.199C552.135 304.752 545.579 304.77 539.297 305.409C538.819 305.472 538.359 305.628 537.942 305.869C537.525 306.111 537.16 306.432 536.868 306.815C536.628 307.113 536.472 307.471 536.418 307.85C536.363 308.229 536.411 308.616 536.558 308.97C536.558 309.189 537.233 310.559 537.598 310.267C537.12 310.616 536.734 311.075 536.474 311.607C536.213 312.138 536.085 312.725 536.101 313.316C536.14 313.905 536.395 314.459 536.815 314.873C537.236 315.287 537.794 315.532 538.384 315.562C538.2 315.759 538.087 316.01 538.06 316.277C538.034 316.545 538.096 316.813 538.238 317.042C538.523 317.498 538.935 317.86 539.425 318.083C540.614 318.75 541.936 319.149 543.296 319.251C541.232 319.251 543.059 321.991 543.844 322.465C545.828 323.293 547.958 323.715 550.108 323.707C553.949 324.064 557.822 323.879 561.612 323.159C562.379 323.013 563.146 322.885 563.895 322.703C570.889 320.986 577.318 317.48 584.239 315.526C585.079 315.289 585.9 315.069 586.741 314.887C586.093 308.861 584.87 302.911 583.088 297.118C578.126 298.143 573.071 298.657 568.004 298.652Z" fill="white"/>
</g>
<path d="M655.936 273.925C653.881 273.306 652.059 272.084 650.708 270.417C649.356 268.749 648.537 266.714 648.357 264.575C647.572 255.572 653.836 251.226 660.191 250.715C653.544 216.017 619.193 192.277 586.578 181.905C567.677 175.878 547.717 173.833 527.867 173.212C526.713 173.146 525.594 172.788 524.616 172.171C524.625 172.903 524.588 173.635 524.507 174.363C523.991 179.37 521.508 183.968 517.604 187.146C511.267 191.803 502.483 188.972 497.425 183.731C496.085 182.372 494.964 180.813 494.101 179.111C493.297 177.707 492.683 176.202 492.275 174.637C492.209 174.354 492.16 174.067 492.129 173.778C473.338 178.91 450.73 179.257 431.391 178.271C422.114 177.778 409.111 176.664 403.103 169.578C390.558 154.768 394.758 114.903 396.493 97.2255C394.338 97.2255 392.292 97.2255 390.284 97.3351C382.618 97.4053 374.954 97.0456 367.329 96.2576C365.503 96.075 363.676 95.8741 361.686 95.6367H360.992C356.682 121.714 352.117 157.032 354.929 183.293C355.075 184.699 355.313 186.05 355.587 187.383C356.888 186.368 358.379 185.621 359.971 185.185C361.563 184.75 363.226 184.634 364.864 184.845C367.3 185.213 369.571 186.301 371.384 187.971C373.197 189.641 374.469 191.815 375.035 194.213C375.514 196.629 375.196 199.134 374.129 201.354C373.062 203.573 371.304 205.387 369.118 206.521C368.325 206.903 367.492 207.196 366.635 207.398C386.504 227.486 426.533 232.398 450.474 229.166C450.693 235.561 450.308 241.963 449.324 248.286C448.575 254.55 447.37 260.759 446.584 267.022C445.063 279.197 443.504 291.371 441.909 303.546C439.718 320.212 437.417 336.879 435.007 353.546C437.511 353.624 439.982 354.137 442.311 355.062C444.265 355.719 446.219 356.468 448.155 356.888C453.524 358.093 458.948 359.079 464.389 359.901C475.674 361.54 487.047 362.498 498.447 362.768C501.735 362.859 524.324 362.129 542.275 361.289L546.658 361.088C552.685 360.778 557.871 360.485 561.14 360.211C562.421 360.226 563.696 360.041 564.92 359.664C563.603 352.549 562.683 345.368 562.162 338.151L561.614 323.085C557.824 323.806 553.951 323.99 550.11 323.633C547.96 323.642 545.83 323.219 543.846 322.392C543.061 321.917 541.234 319.214 543.298 319.178C541.938 319.075 540.616 318.676 539.427 318.009C538.937 317.786 538.525 317.424 538.24 316.968C538.098 316.739 538.036 316.471 538.062 316.204C538.089 315.936 538.202 315.685 538.386 315.489C537.796 315.459 537.238 315.213 536.817 314.799C536.397 314.385 536.142 313.831 536.103 313.242C536.087 312.651 536.215 312.064 536.476 311.533C536.736 311.002 537.122 310.542 537.6 310.193C537.235 310.485 536.633 309.115 536.559 308.896C536.413 308.542 536.365 308.155 536.42 307.776C536.474 307.397 536.63 307.04 536.87 306.741C537.162 306.358 537.527 306.037 537.944 305.796C538.361 305.554 538.821 305.398 539.299 305.335C545.581 304.696 552.082 304.678 558.236 303.126C559.113 302.888 560.062 302.632 560.829 302.34L560.665 297.464C560.555 294.798 560.464 292.132 560.354 289.466C559.551 267.552 563.806 246.186 565.358 224.527L565.705 224.619C577.1 227.431 590.194 231.649 598.576 236.799C599.675 237.47 600.736 238.201 601.754 238.991C610.099 245.565 616.089 256.394 613.423 266.675C611.597 273.487 606.447 279.002 600.384 282.581C594.18 285.933 587.535 288.393 580.643 289.886C581.574 292.242 582.469 294.634 583.127 297.063C584.908 302.855 586.131 308.805 586.779 314.831C587.071 317.662 587.236 320.529 587.272 323.396C587.272 324.492 616.144 316.566 618.664 315.58C627.464 311.967 635.604 306.92 642.751 300.642C650.945 293.797 656.799 284.566 659.497 274.236C658.301 274.352 657.094 274.247 655.936 273.925ZM540.997 250.185C540.593 252.971 539.677 255.658 538.294 258.111C537.593 259.326 536.646 260.383 535.514 261.213C534.383 262.043 533.09 262.628 531.72 262.932C521.548 264.648 516.581 254.531 516.307 246.295C516.307 243.282 516.052 239.338 516.307 236.306C516.307 236.014 540.047 236.416 542.44 236.306C541.819 240.945 541.819 245.601 540.997 250.222V250.185Z" fill="#BF0830"/>
<path d="M660.517 252.138L660.243 250.714C653.815 251.225 647.624 255.571 648.409 264.574C648.589 266.713 649.408 268.748 650.76 270.416C652.111 272.083 653.933 273.306 655.988 273.924C657.15 274.222 658.357 274.302 659.549 274.162C661.427 266.972 661.757 259.465 660.517 252.138Z" fill="#161111"/>
<path d="M375.052 194.249C374.486 191.85 373.214 189.676 371.401 188.007C369.588 186.337 367.317 185.249 364.88 184.881C363.243 184.67 361.58 184.785 359.988 185.221C358.396 185.657 356.905 186.404 355.604 187.419C357.235 195.054 361.077 202.04 366.652 207.507C367.509 207.305 368.342 207.011 369.135 206.63C371.335 205.492 373.103 203.667 374.171 201.432C375.238 199.197 375.548 196.675 375.052 194.249Z" fill="#161111"/>
<path d="M516.249 236.343C516.084 239.374 516.249 243.319 516.249 246.332C516.523 254.568 521.49 264.685 531.662 262.968C533.032 262.665 534.324 262.079 535.456 261.249C536.588 260.419 537.534 259.363 538.236 258.147C539.619 255.695 540.535 253.008 540.939 250.222C541.797 245.602 541.76 240.945 542.29 236.306C539.989 236.452 516.249 236.051 516.249 236.343Z" fill="#161111"/>
<path d="M498.535 416.494C498.535 413.17 498.535 409.847 498.334 406.742C498.334 406.998 498.243 407.272 498.206 407.527C497.896 409.774 497.512 412.02 497.111 414.266C496.198 419.525 495.431 424.839 494.755 430.135C494.079 435.431 493.824 441.275 493.148 446.845C492.874 449.127 492.6 451.41 492.381 453.693C492.381 455.318 492.381 456.943 492.381 458.587C492.618 458.587 492.837 458.386 493.038 458.039C494.006 456.414 494.572 451.538 494.974 450.424C495.851 447.922 496.051 444.946 496.8 442.407C497.238 440.837 497.914 436.929 498.48 434.427C498.645 433.678 498.791 433.021 498.919 432.601C498.572 427.889 498.572 422.155 498.535 416.494Z" fill="#161111"/>
<path opacity="0.2" d="M535.108 50.9787C541.406 50.9787 546.511 45.5731 546.511 38.9049C546.511 32.2367 541.406 26.8311 535.108 26.8311C528.81 26.8311 523.705 32.2367 523.705 38.9049C523.705 45.5731 528.81 50.9787 535.108 50.9787Z" stroke="#BF0830" stroke-width="5"/>
<defs>
<filter id="filter0_d_187_5652" x="219.279" y="153.125" width="84.2146" height="168.502" filterUnits="userSpaceOnUse" color-interpolation-filters="sRGB">
<feFlood flood-opacity="0" result="BackgroundImageFix"/>
<feColorMatrix in="SourceAlpha" type="matrix" values="0 0 0 0 0 0 0 0 0 0 0 0 0 0 0 0 0 0 127 0" result="hardAlpha"/>
<feOffset dy="4"/>
<feGaussianBlur stdDeviation="13"/>
<feComposite in2="hardAlpha" operator="out"/>
<feColorMatrix type="matrix" values="0 0 0 0 0 0 0 0 0 0 0 0 0 0 0 0 0 0 0.19 0"/>
<feBlend mode="normal" in2="BackgroundImageFix" result="effect1_dropShadow_187_5652"/>
<feBlend mode="normal" in="SourceGraphic" in2="effect1_dropShadow_187_5652" result="shape"/>
</filter>
<filter id="filter1_d_187_5652" x="188.346" y="305.637" width="165.916" height="115.91" filterUnits="userSpaceOnUse" color-interpolation-filters="sRGB">
<feFlood flood-opacity="0" result="BackgroundImageFix"/>
<feColorMatrix in="SourceAlpha" type="matrix" values="0 0 0 0 0 0 0 0 0 0 0 0 0 0 0 0 0 0 127 0" result="hardAlpha"/>
<feOffset dy="4"/>
<feGaussianBlur stdDeviation="13"/>
<feComposite in2="hardAlpha" operator="out"/>
<feColorMatrix type="matrix" values="0 0 0 0 0 0 0 0 0 0 0 0 0 0 0 0 0 0 0.19 0"/>
<feBlend mode="normal" in2="BackgroundImageFix" result="effect1_dropShadow_187_5652"/>
<feBlend mode="normal" in="SourceGraphic" in2="effect1_dropShadow_187_5652" result="shape"/>
</filter>
<filter id="filter2_d_187_5652" x="355.49" y="56.3545" width="54.7612" height="57.0247" filterUnits="userSpaceOnUse" color-interpolation-filters="sRGB">
<feFlood flood-opacity="0" result="BackgroundImageFix"/>
<feColorMatrix in="SourceAlpha" type="matrix" values="0 0 0 0 0 0 0 0 0 0 0 0 0 0 0 0 0 0 127 0" result="hardAlpha"/>
<feOffset dy="4"/>
<feGaussianBlur stdDeviation="6"/>
<feComposite in2="hardAlpha" operator="out"/>
<feColorMatrix type="matrix" values="0 0 0 0 0 0 0 0 0 0 0 0 0 0 0 0 0 0 0.25 0"/>
<feBlend mode="normal" in2="BackgroundImageFix" result="effect1_dropShadow_187_5652"/>
<feBlend mode="normal" in="SourceGraphic" in2="effect1_dropShadow_187_5652" result="shape"/>
</filter>
<filter id="filter3_d_187_5652" x="510.1" y="275.118" width="102.641" height="78.7655" filterUnits="userSpaceOnUse" color-interpolation-filters="sRGB">
<feFlood flood-opacity="0" result="BackgroundImageFix"/>
<feColorMatrix in="SourceAlpha" type="matrix" values="0 0 0 0 0 0 0 0 0 0 0 0 0 0 0 0 0 0 127 0" result="hardAlpha"/>
<feOffset dy="4"/>
<feGaussianBlur stdDeviation="13"/>
<feComposite in2="hardAlpha" operator="out"/>
<feColorMatrix type="matrix" values="0 0 0 0 0 0 0 0 0 0 0 0 0 0 0 0 0 0 0.19 0"/>
<feBlend mode="normal" in2="BackgroundImageFix" result="effect1_dropShadow_187_5652"/>
<feBlend mode="normal" in="SourceGraphic" in2="effect1_dropShadow_187_5652" result="shape"/>
</filter>
</defs>
</svg>
