<svg width="310" height="243" viewBox="0 0 310 243" fill="none" xmlns="http://www.w3.org/2000/svg">
<path d="M150.772 243C216.77 243 270.272 188.603 270.272 121.5C270.272 54.3974 216.77 0 150.772 0C84.7739 0 31.272 54.3974 31.272 121.5C31.272 188.603 84.7739 243 150.772 243Z" fill="url(#paint0_linear_405_14252)"/>
<path d="M140.491 77.9834L96.395 130.591L97.3313 131.376L141.428 78.7682L140.491 77.9834Z" fill="#120283"/>
<path d="M15.8705 107.14L15.5029 108.305L96.536 133.87L96.9036 132.705L15.8705 107.14Z" fill="#120283"/>
<path d="M16.8829 122.275C24.8953 121.619 30.8588 114.592 30.2029 106.579C29.547 98.5671 22.52 92.6036 14.5076 93.2595C6.49529 93.9154 0.531727 100.942 1.18765 108.955C1.84356 116.967 8.87058 122.931 16.8829 122.275Z" fill="#353A85"/>
<path d="M66.2643 47.2769L65.1221 47.7106L96.3758 130.03L97.518 129.596L66.2643 47.2769Z" fill="#120283"/>
<path d="M67.392 47.0333L66.9219 48.161L140.727 78.9283L141.197 77.8007L67.392 47.0333Z" fill="#120283"/>
<path d="M213.404 41.1715L139.144 77.7284L139.683 78.8245L213.944 42.2676L213.404 41.1715Z" fill="#120283"/>
<path d="M141.282 77.8468L140.643 78.8876L218.709 126.877L219.349 125.836L141.282 77.8468Z" fill="#120283"/>
<path d="M289.89 68.6582L218.646 125.898L219.412 126.851L290.655 69.6106L289.89 68.6582Z" fill="#120283"/>
<path d="M150.268 99.7704C164.078 96.2991 172.459 82.2903 168.987 68.4807C165.516 54.6712 151.507 46.2904 137.698 49.7617C123.888 53.233 115.507 67.2418 118.979 81.0513C122.45 94.8609 136.459 103.242 150.268 99.7704Z" fill="#353A85"/>
<path d="M291.489 87.1061C301.46 86.4316 308.996 77.8015 308.322 67.8303C307.647 57.8591 299.017 50.3227 289.046 50.9972C279.075 51.6717 271.539 60.3018 272.213 70.273C272.888 80.2442 281.518 87.7806 291.489 87.1061Z" fill="#353A85"/>
<path d="M87.0448 49.9257C88.1356 39.2063 80.33 29.6322 69.6106 28.5415C58.8911 27.4508 49.3171 35.2564 48.2264 45.9758C47.1357 56.6952 54.9413 66.2692 65.6607 67.3599C76.3801 68.4507 85.9541 60.6451 87.0448 49.9257Z" fill="#120283"/>
<path d="M225.782 49.3376C229.988 42.6526 227.979 33.8232 221.294 29.6167C214.609 25.4101 205.78 27.4193 201.573 34.1044C197.367 40.7894 199.376 49.6188 206.061 53.8254C212.746 58.0319 221.575 56.0227 225.782 49.3376Z" fill="#BF0830"/>
<path d="M244.965 144.68C259.949 129.696 259.949 105.402 244.965 90.4177C229.981 75.4334 205.686 75.4334 190.702 90.4176C175.718 105.402 175.718 129.696 190.702 144.68C205.686 159.665 229.981 159.665 244.965 144.68Z" fill="#120283"/>
<path d="M97.3836 145.212C109.257 143.683 117.643 132.817 116.114 120.944C114.584 109.07 103.719 100.684 91.8447 102.213C79.9709 103.743 71.5851 114.609 73.1146 126.482C74.6441 138.356 85.5097 146.742 97.3836 145.212Z" fill="#BF0830"/>
<path d="M14.938 120.631C16.6321 120.741 18.3313 120.516 19.9384 119.968C21.5454 119.421 23.0287 118.562 24.3035 117.441C23.9838 116.228 23.5886 115.036 23.1201 113.873C22.3612 112 20.9468 110.466 19.1408 109.559L19.1861 109.496C19.8906 108.266 20.232 106.862 20.1705 105.447C20.1705 104.124 19.9192 102.759 19.1233 101.645C18.6999 101.012 18.109 100.508 17.4163 100.19C16.7237 99.8722 15.9565 99.7528 15.2 99.8451C14.4435 99.9373 13.7275 100.238 13.1315 100.713C12.5355 101.188 12.083 101.818 11.8243 102.535C11.2658 103.879 11.3251 105.328 11.4333 106.759C11.5044 107.778 11.7911 108.77 12.2746 109.67C11.1392 110.405 10.1487 111.342 9.35288 112.435C8.42435 113.629 8.46275 113.685 7.87981 115.095C7.59357 115.793 7.31083 116.491 7.06299 117.29C9.23124 119.268 12.0093 120.446 14.938 120.631Z" fill="white"/>
<path d="M66.8969 64.7416C69.1359 64.8888 71.382 64.5924 73.5061 63.8694C75.6302 63.1463 77.5907 62.0109 79.2749 60.5284C78.8554 58.9237 78.3342 57.3474 77.7146 55.809C76.7109 53.3334 74.8412 51.3074 72.4541 50.1087C72.4541 50.0772 72.496 50.0528 72.5135 50.0249C73.5223 48.3982 73.8294 46.5132 73.812 44.6737C73.812 42.9283 73.4839 41.1201 72.4157 39.6436C71.8475 38.858 71.0902 38.2286 70.2139 37.8137C69.3377 37.3987 68.3709 37.2117 67.4031 37.2699C65.2493 37.4619 63.518 39.0537 62.7814 40.8269C62.0449 42.6002 62.1217 44.534 62.2683 46.412C62.359 47.7571 62.7388 49.0668 63.3818 50.2518C61.88 51.2206 60.57 52.4585 59.5176 53.903C58.2924 55.4843 58.3413 55.5576 57.5698 57.4182C57.1928 58.3362 56.8158 59.2822 56.4912 60.3224C59.355 62.938 63.0262 64.4971 66.8969 64.7416Z" fill="white"/>
<path d="M93.517 142.992C95.9255 143.149 98.3414 142.829 100.626 142.05C102.911 141.272 105.019 140.05 106.83 138.454C106.377 136.729 105.816 135.034 105.151 133.379C104.071 130.717 102.06 128.539 99.493 127.249C99.5105 127.218 99.5349 127.19 99.5558 127.159C100.641 125.413 100.973 123.382 100.952 121.406C100.935 119.524 100.603 117.566 99.4511 115.999C98.8398 115.152 98.0247 114.474 97.0813 114.027C96.1378 113.579 95.0967 113.378 94.0545 113.44C91.7402 113.65 89.8657 115.36 89.0873 117.28C88.3089 119.2 88.3891 121.27 88.5323 123.284C88.6316 124.733 89.0399 126.145 89.7296 127.424C88.1147 128.466 86.7064 129.797 85.5757 131.351C84.2562 133.051 84.312 133.128 83.4812 135.131C83.0728 136.116 82.6679 137.135 82.3188 138.255C85.4037 141.063 89.354 142.734 93.517 142.992Z" fill="white"/>
<path d="M289.355 83.8809C291.434 84.0166 293.519 83.7409 295.49 83.0694C297.462 82.3979 299.282 81.3439 300.846 79.9679C300.454 78.4787 299.969 77.0155 299.394 75.5871C298.46 73.2895 296.723 71.4092 294.507 70.2952C294.507 70.2707 294.546 70.2463 294.559 70.2184C295.498 68.7104 295.781 66.9616 295.767 65.2546C295.767 63.628 295.464 61.9559 294.472 60.5876C293.945 59.857 293.242 59.2715 292.427 58.8852C291.613 58.4989 290.715 58.3245 289.816 58.378C287.819 58.5595 286.213 60.0361 285.529 61.6837C284.845 63.3313 284.915 65.122 285.051 66.8638C285.142 68.1151 285.499 69.3326 286.098 70.4348C284.704 71.3353 283.488 72.4842 282.51 73.8243C281.375 75.2903 281.421 75.3602 280.705 77.0881C280.356 77.9363 280.007 78.8159 279.703 79.7829C282.36 82.2071 285.765 83.6527 289.355 83.8809Z" fill="white"/>
<path d="M142.708 96.999C145.612 97.1886 148.526 96.8031 151.281 95.8644C154.037 94.9258 156.58 93.4525 158.765 91.5291C158.218 89.4465 157.541 87.4003 156.737 85.403C155.432 82.1906 153.006 79.561 149.909 78.0027C149.932 77.9653 149.958 77.9291 149.986 77.8945C151.295 75.8001 151.693 73.3357 151.672 70.948C151.672 68.6756 151.246 66.3368 149.86 64.4205C148.474 62.5041 145.95 61.1008 143.35 61.3347C140.557 61.5895 138.309 63.6525 137.353 65.9529C136.396 68.2532 136.508 70.77 136.697 73.2135C136.817 74.9625 137.31 76.6656 138.142 78.2087C136.306 79.3187 134.679 80.9454 133.126 82.949C131.572 84.9527 131.604 85.0958 130.602 87.5148C130.11 88.7017 129.624 89.9304 129.206 91.2848C132.925 94.6702 137.688 96.6859 142.708 96.999Z" fill="white"/>
<path d="M212.937 53.6028C214.601 53.7102 216.269 53.488 217.847 52.9488C219.425 52.4097 220.881 51.5643 222.131 50.4612C221.818 49.2744 221.431 48.1086 220.972 46.9705C220.227 45.1321 218.839 43.6273 217.066 42.7363C217.079 42.7146 217.093 42.6936 217.108 42.6735C217.8 41.4678 218.136 40.0901 218.075 38.7011C218.075 37.399 217.831 36.0621 217.028 34.966C216.611 34.3474 216.031 33.8561 215.352 33.5464C214.673 33.2368 213.922 33.121 213.181 33.2116C212.441 33.3023 211.74 33.596 211.156 34.0602C210.572 34.5245 210.127 35.1412 209.872 35.8422C209.324 37.1582 209.38 38.5963 209.488 39.9891C209.557 40.9901 209.839 41.9648 210.315 42.848C209.2 43.5662 208.227 44.4846 207.446 45.5568C206.535 46.7331 206.573 46.7855 206.001 48.1713C205.718 48.8485 205.439 49.5676 205.198 50.3285C207.329 52.2701 210.059 53.4253 212.937 53.6028Z" fill="white"/>
<path d="M215.761 152.134C220.46 152.443 225.175 151.821 229.633 150.303C234.091 148.786 238.207 146.403 241.742 143.292C240.857 139.925 239.761 136.616 238.461 133.386C236.354 128.192 232.432 123.94 227.423 121.423C227.462 121.364 227.511 121.308 227.546 121.249C229.664 117.838 230.31 113.88 230.279 110.019C230.247 106.347 229.581 102.567 227.347 99.4669C225.113 96.3671 221.025 94.0982 216.822 94.4787C212.305 94.8871 208.671 98.2242 207.129 101.945C205.586 105.666 205.732 109.726 206.046 113.66C206.238 116.487 207.035 119.241 208.382 121.734C205.411 123.528 202.797 126.157 200.273 129.413C197.704 132.726 197.808 132.883 196.192 136.789C195.396 138.713 194.608 140.699 193.923 142.884C199.937 148.364 207.641 151.627 215.761 152.134Z" fill="white"/>
<defs>
<linearGradient id="paint0_linear_405_14252" x1="260.393" y1="5.32435" x2="-63.1805" y2="139.71" gradientUnits="userSpaceOnUse">
<stop stop-color="#E3E7F6"/>
<stop offset="1" stop-color="#E3E7F6" stop-opacity="0"/>
</linearGradient>
</defs>
</svg>
