<svg width="341" height="172" viewBox="0 0 341 172" fill="none" xmlns="http://www.w3.org/2000/svg">
<path d="M275.5 159C311.675 159 341 129.227 341 92.5C341 55.7731 311.675 26 275.5 26C239.325 26 210 55.7731 210 92.5C210 129.227 239.325 159 275.5 159Z" fill="url(#paint0_linear_405_14251)"/>
<path d="M163.5 133C199.675 133 229 103.227 229 66.5C229 29.7731 199.675 0 163.5 0C127.325 0 98 29.7731 98 66.5C98 103.227 127.325 133 163.5 133Z" fill="url(#paint1_linear_405_14251)"/>
<path d="M65.5 166C101.675 166 131 136.227 131 99.5C131 62.7731 101.675 33 65.5 33C29.3254 33 0 62.7731 0 99.5C0 136.227 29.3254 166 65.5 166Z" fill="url(#paint2_linear_405_14251)"/>
<path d="M57.9968 51.136C57.9968 51.136 58.6862 47.7772 62.3714 47.1029C66.0567 46.4286 68.6581 49.3299 73.1487 48.2788C77.6394 47.2276 82.4161 49.3299 82.3203 54.5806C82.2245 59.8313 84.899 62.0331 88.3385 64.6131C91.778 67.193 88.244 70.2847 87.4789 73.7394C86.7139 77.194 93.0875 75.9097 92.3514 80.4722C90.2529 93.4741 54.6883 89.8481 49.0734 86.0935C45.881 83.9597 43.78 80.7583 46.0234 77.3188C48.2668 73.8793 49.1365 78.8312 47.8307 69.4428C47.3178 65.7537 51.7731 63.0149 52.5596 60.4325C53.346 57.85 52.2017 51.6881 57.9968 51.136Z" fill="#120283"/>
<path d="M87.434 152.292C86.3492 152.703 85.2569 153.09 84.1571 153.452C69.6415 158.261 54.492 159.163 54.492 159.163L52.0368 157.886L47.1605 155.35L27.7295 145.244V122.266C27.7295 122.266 27.8643 104.566 45.8787 97.5803C47.3152 97.0263 48.7852 96.5632 50.2799 96.1939C51.9689 95.7735 53.6813 95.4536 55.4082 95.236L81.2065 95.1226C81.2065 95.1226 82.845 95.3204 85.333 96.0224C88.0238 96.7785 90.6287 97.8125 93.1056 99.1078C100.891 103.193 109.731 111.306 110.313 127.144C110.783 139.884 99.7868 147.625 87.434 152.292Z" fill="#E8ECF8"/>
<path d="M52.0417 157.886L47.1654 155.35L27.7344 145.244V122.266C27.7344 122.266 27.8692 104.566 45.8836 97.5802C47.3201 97.0262 48.7901 96.5632 50.2848 96.1938C50.2848 96.1938 51.2716 141.35 52.0417 157.886Z" fill="#120283"/>
<path d="M87.4332 152.292C86.3493 152.703 85.257 153.09 84.1562 153.452C84.581 133.02 85.3347 96.0199 85.3347 96.0199C93.1741 98.2243 109.516 105.412 110.315 127.142C110.784 139.884 99.786 147.625 87.4332 152.292Z" fill="#120283"/>
<path d="M81.212 95.12C78.3547 97.4983 75.5857 98.9426 72.978 99.7303H72.9604C64.3623 102.309 57.5097 97.6886 54.8428 95.4527C55.0356 95.3796 55.2285 95.3052 55.4188 95.2284C55.9196 95.028 56.4027 94.7859 56.8631 94.5049C63.659 90.3369 62.4226 78.8878 62.4226 78.8878H74.4892C74.3535 80.5011 74.37 82.1236 74.5384 83.7338C74.9354 87.7191 76.4075 93.0353 81.212 95.12Z" fill="#E8ECF8"/>
<path d="M93.1077 99.1054C90.6757 101.058 88.0884 102.81 85.3716 104.342C68.6177 113.691 56.4616 107.299 50.3476 102.185C47.4223 99.7369 45.8809 97.5804 45.8809 97.5804C47.3169 97.0263 48.7865 96.5633 50.2808 96.1939C51.0748 95.9948 51.897 95.8149 52.7473 95.6545C53.3598 95.5385 53.9875 95.4348 54.6303 95.3432C54.8887 95.3041 55.1483 95.27 55.4104 95.2347L81.2087 95.1238C81.2087 95.1238 81.6057 95.1705 82.3077 95.3041C82.7513 95.3885 83.316 95.5057 83.9852 95.6696C84.3995 95.7696 84.8498 95.8877 85.3363 96.0238C88.0268 96.7783 90.6313 97.811 93.1077 99.1054Z" fill="#E8ECF8"/>
<path d="M85.3712 104.342C68.6173 113.69 56.4612 107.299 50.3472 102.184C51.3857 100.896 52.5314 98.794 52.7418 95.6518C53.3544 95.5359 53.982 95.4321 54.6248 95.3405C54.2051 97.3698 53.701 102.792 59.147 106.289C65.9529 110.66 78.1343 108.295 80.3563 104.283C82.0842 101.158 82.2934 96.9954 82.3023 95.3015C82.7459 95.3859 83.3105 95.5031 83.9798 95.667C83.6937 97.3937 83.3131 101.414 85.3712 104.342Z" fill="#120283"/>
<path d="M74.5321 83.7378C73.8263 84.9465 72.8142 85.7997 71.3811 85.9195C65.7586 86.387 62.5963 80.8629 62.6631 80.3537L62.9543 78.8917H74.4842C74.3481 80.505 74.3641 82.1275 74.5321 83.7378Z" fill="#120283"/>
<path d="M82.1007 68.3308C82.1007 66.7566 80.9878 65.4786 79.6153 65.4786C78.2428 65.4786 77.1299 66.7566 77.1299 68.3308C77.1299 69.905 78.2428 71.8863 79.6153 71.8863C80.9878 71.8863 82.1007 69.9063 82.1007 68.3308Z" fill="#E8ECF8"/>
<path d="M78.9628 69.3091L78.7876 69.2915C78.7876 69.2726 79.0006 67.4123 80.7273 67.3669V67.5433C79.1581 67.5837 78.964 69.2915 78.9628 69.3091Z" fill="#120283"/>
<path d="M80.6652 69.0444C80.3715 68.7406 80.0716 68.5969 79.7729 68.612C79.3191 68.6385 79.0166 69.0331 79.0091 69.0369L78.8691 68.9297C78.8843 68.9108 79.2271 68.4684 79.7602 68.4369C80.1194 68.4167 80.461 68.5793 80.7925 68.9222L80.6652 69.0444Z" fill="#120283"/>
<path d="M54.4922 68.3308C54.4922 66.7566 55.6051 65.4786 56.9776 65.4786C58.3501 65.4786 59.463 66.7566 59.463 68.3308C59.463 69.905 58.3501 71.8863 56.9776 71.8863C55.6051 71.8863 54.4922 69.9063 54.4922 68.3308Z" fill="#E8ECF8"/>
<path d="M57.909 69.3091L58.0842 69.2915C58.0842 69.2725 57.8712 67.4122 56.1445 67.3668V67.5433C57.7137 67.5836 57.9078 69.2914 57.909 69.3091Z" fill="#120283"/>
<path d="M56.2051 69.0444C56.4988 68.7406 56.8 68.5969 57.0987 68.612C57.5512 68.6385 57.8549 69.0331 57.8625 69.0369L58.0011 68.9297C57.9873 68.9108 57.6444 68.4684 57.1113 68.4369C56.7509 68.4167 56.4106 68.5793 56.0791 68.9222L56.2051 69.0444Z" fill="#120283"/>
<path d="M75.4053 79.2822C73.5639 81.3971 71.2322 82.7595 68.4354 82.7142C65.6424 82.7595 63.3083 81.3971 61.4669 79.2822C61.457 79.2683 61.446 79.2552 61.4341 79.2431C58.1357 75.0739 57.4639 69.0015 58.3575 61.7708C59.0003 56.5706 63.9032 54.554 66.6268 53.8306C67.812 53.5155 69.0589 53.5155 70.2441 53.8306C72.9677 54.5553 77.8719 56.5718 78.5147 61.7708C79.4108 69.0242 78.7327 75.1155 75.4053 79.2822Z" fill="#E8ECF8"/>
<path d="M72.199 69.033C72.5289 69.033 72.7964 68.7655 72.7964 68.4355C72.7964 68.1056 72.5289 67.8381 72.199 67.8381C71.869 67.8381 71.6016 68.1056 71.6016 68.4355C71.6016 68.7655 71.869 69.033 72.199 69.033Z" fill="#120283"/>
<path d="M64.2937 69.033C64.6236 69.033 64.8911 68.7655 64.8911 68.4355C64.8911 68.1056 64.6236 67.8381 64.2937 67.8381C63.9638 67.8381 63.6963 68.1056 63.6963 68.4355C63.6963 68.7655 63.9638 69.033 64.2937 69.033Z" fill="#120283"/>
<path d="M76.0308 63.2683C76.0308 63.2683 74.4692 63.3086 72.4174 63.3187C70.3656 63.3288 69.8375 63.3086 70.0228 62.7818C70.208 62.2549 72.2636 62.2663 73.5517 62.4478C74.4146 62.5951 75.2504 62.8717 76.0308 63.2683Z" fill="#120283"/>
<path d="M60.3237 63.2683C60.3237 63.2683 61.8853 63.3086 63.9359 63.3187C65.9865 63.3288 66.5159 63.3086 66.3306 62.7818C66.1453 62.2549 64.0897 62.2663 62.8016 62.4478C61.9391 62.5951 61.1037 62.8717 60.3237 63.2683Z" fill="#120283"/>
<path d="M68.0344 72.6338C67.8201 72.6338 67.6071 72.5997 67.4899 72.4901C67.4499 72.4526 67.4202 72.4054 67.4036 72.3531C67.3871 72.3008 67.3842 72.2451 67.3954 72.1914C67.4823 71.6419 67.8025 69.4614 67.805 69.44L67.979 69.4652C67.979 69.4866 67.6563 71.6683 67.5693 72.2179C67.5624 72.2432 67.5625 72.27 67.5696 72.2953C67.5767 72.3206 67.5905 72.3435 67.6097 72.3615C67.7723 72.514 68.3419 72.4561 68.6634 72.383L68.7024 72.5544C68.483 72.6032 68.2592 72.6298 68.0344 72.6338Z" fill="#120283"/>
<path d="M69.1841 74.0124C68.9255 74.0153 68.6674 73.9874 68.4153 73.9293C68.4049 73.9265 68.3951 73.9218 68.3865 73.9153C68.3779 73.9088 68.3707 73.9006 68.3652 73.8913C68.3598 73.882 68.3562 73.8717 68.3548 73.861C68.3533 73.8504 68.3539 73.8395 68.3567 73.8291C68.3594 73.8186 68.3642 73.8089 68.3707 73.8003C68.3772 73.7917 68.3853 73.7845 68.3946 73.779C68.404 73.7736 68.4142 73.77 68.4249 73.7685C68.4356 73.7671 68.4465 73.7678 68.4569 73.7705C69.1314 73.9114 69.8324 73.8518 70.4735 73.5991C70.4834 73.5949 70.4941 73.5926 70.5048 73.5925C70.5156 73.5924 70.5263 73.5945 70.5363 73.5985C70.5464 73.6025 70.5555 73.6085 70.5632 73.6161C70.5709 73.6236 70.577 73.6326 70.5812 73.6426C70.5854 73.6525 70.5877 73.6632 70.5878 73.6739C70.5879 73.6847 70.5858 73.6954 70.5818 73.7054C70.5778 73.7155 70.5718 73.7246 70.5642 73.7323C70.5567 73.74 70.5477 73.7461 70.5377 73.7503C70.1082 73.9258 69.6482 74.0149 69.1841 74.0124Z" fill="#120283"/>
<path d="M78.6219 59.1998L78.3018 75.263L79.2269 65.1272C79.2269 65.1272 82.0941 61.3083 78.6219 59.1998Z" fill="#120283"/>
<path d="M58.4129 59.9144L58.5692 75.263L57.6453 65.1272C57.6453 65.1272 54.943 62.0229 58.4129 59.9144Z" fill="#120283"/>
<path d="M109.86 132.227C108.291 139.207 102.94 144.405 96.1413 148.267C95.3599 148.71 94.5617 149.137 93.7466 149.546C91.6908 150.568 89.5841 151.485 87.4347 152.292C86.6457 136.671 85.6311 105.358 85.335 96.0199C93.177 98.2243 109.513 105.415 110.31 127.139C110.38 128.848 110.229 130.558 109.86 132.227Z" fill="#BF0830"/>
<path d="M50.2809 96.1912L47.1666 155.35L42.3545 152.848L39.6385 151.435L27.7344 145.246V122.264C27.7344 122.264 27.8907 101.788 50.2809 96.1912Z" fill="#BF0830"/>
<path d="M58.4542 62.8232C58.4542 62.8232 58.8184 59.574 60.3233 57.8057C60.3233 57.8057 64.7774 55.0733 76.0298 57.8057C76.0298 57.8057 78.1951 59.0963 78.5215 62.8232C78.5215 62.8232 80.0201 58.8997 77.8346 54.0587C75.6492 49.2177 63.4591 49.3564 60.8917 51.872C58.3244 54.3877 54.7676 59.7215 58.4542 62.8232Z" fill="#120283"/>
<path d="M96.1415 148.267C95.3601 148.71 94.5619 149.137 93.7469 149.546L90.2544 103.382C90.3703 104.452 93.4658 132.679 96.1415 148.267Z" fill="#EF9143"/>
<path d="M39.6387 151.435C42.4228 136.904 45.9719 104.528 46.098 103.383L42.3547 152.848L39.6387 151.435Z" fill="#EF9143"/>
<path d="M52.7031 109.116C52.7031 109.116 66.7473 119.899 83.3714 109.116C83.3714 109.116 68.8975 123.766 52.7031 109.116Z" fill="#EDEDED"/>
<path d="M56.8589 140.754C56.8589 140.754 73.0532 135.309 82.2248 120.118C82.2198 120.118 73.1969 141.327 56.8589 140.754Z" fill="#EDEDED"/>
<path d="M60.3232 57.8059C60.3232 57.8059 65.6722 55.2714 65.9596 58.7109C66.2469 62.1503 68.6429 63.8783 71.5997 62.3356C74.5565 60.7929 75.8471 61.5794 75.203 64.2261C74.559 66.8728 77.4276 66.9006 80.7927 64.2261C84.1579 61.5517 77.6935 56.2015 77.1289 55.9154C76.5642 55.6293 75.0001 52.1886 70.5876 52.8339C66.1751 53.4791 60.3232 57.8059 60.3232 57.8059Z" fill="#120283"/>
<path d="M162.125 35.0225V65.2561C159.83 68.072 156.279 71.6126 153.246 71.1057C148.305 70.2773 147.034 63.8052 145.141 54.0519C143.249 44.2986 149.107 34.4667 162.125 35.0225Z" fill="#120283"/>
<path d="M162.125 35.0225V65.2561C164.421 68.072 167.973 71.6126 171.004 71.1057C175.945 70.2773 177.216 63.8052 179.109 54.0519C181.002 44.2986 175.151 34.4667 162.125 35.0225Z" fill="#120283"/>
<path d="M209.445 145.517C209.445 145.6 209.445 145.682 209.445 145.763C209.315 145.978 209.184 146.187 209.045 146.399C208.971 146.512 208.897 146.624 208.824 146.739C206.545 150.138 203.421 153.08 199.772 155.619C199.468 155.831 199.158 156.043 198.845 156.247C198.562 156.437 198.275 156.622 197.984 156.806C197.461 157.14 196.93 157.464 196.391 157.778C186.002 163.873 172.621 167.302 162.169 169.19C152.523 170.93 145.369 171.352 145.369 171.352L131.565 164.175L127.849 162.241L122.578 159.509L117.86 157.057L117.415 156.827L115.743 155.957L113 154.53V126.758C113 126.758 113 126.559 113.021 126.195C113.034 125.977 113.052 125.7 113.081 125.369C113.081 125.32 113.089 125.271 113.095 125.221C113.173 124.361 113.317 123.177 113.581 121.766C113.923 119.943 114.389 118.145 114.976 116.385C115.063 116.124 115.158 115.857 115.253 115.589C116.342 112.504 117.838 109.578 119.699 106.887C119.88 106.63 120.062 106.374 120.253 106.117C122.708 102.786 125.768 99.9461 129.273 97.7454C129.665 97.4964 130.072 97.2519 130.487 97.0148C132.033 96.1284 133.641 95.3547 135.299 94.6998C136.401 94.2631 137.559 93.8635 138.773 93.5009C139.958 93.1511 141.197 92.8404 142.488 92.5686C142.706 92.5242 142.924 92.4797 143.146 92.4382C144.21 92.2308 145.314 92.0534 146.457 91.9061L177.632 91.7743L177.747 91.8098C178.087 91.9136 179.151 92.2545 180.692 92.8369L180.771 92.868L180.87 92.9065C180.908 92.9199 180.956 92.9377 181.008 92.9614C181.365 93.1007 181.749 93.2578 182.146 93.406C183.248 93.858 184.502 94.4063 185.851 95.0584C187.037 95.6364 188.304 96.293 189.595 97.0326C190.009 97.2697 190.425 97.5167 190.842 97.7736C194.388 99.9255 198.059 102.691 201.031 106.137C201.251 106.386 201.466 106.641 201.673 106.898C203.81 109.476 205.421 112.446 206.416 115.642C206.502 115.908 206.586 116.178 206.669 116.45C207.268 118.48 207.742 120.545 208.089 122.633C208.196 123.242 208.292 123.86 208.385 124.483C208.433 124.813 208.48 125.145 208.523 125.479C208.559 125.752 208.594 126.025 208.628 126.3C208.727 127.079 208.814 127.866 208.889 128.661C209.113 130.919 209.261 133.208 209.355 135.457C209.366 135.736 209.377 136.012 209.389 136.289C209.501 139.527 209.501 142.673 209.445 145.517Z" fill="#120283"/>
<path d="M116.638 143.36C116.638 143.939 115.749 144.941 115.113 145.59C115.03 145.678 114.93 145.749 114.818 145.797C114.707 145.845 114.587 145.87 114.466 145.87C114.344 145.87 114.224 145.845 114.113 145.797C114.001 145.749 113.901 145.678 113.818 145.59C113.565 145.332 113.273 145.021 113.012 144.701V142.012C113.261 141.707 113.539 141.406 113.787 141.156C113.874 141.064 113.98 140.991 114.096 140.941C114.213 140.892 114.338 140.866 114.465 140.866C114.592 140.866 114.717 140.892 114.834 140.941C114.95 140.991 115.055 141.064 115.143 141.156C115.78 141.808 116.638 142.787 116.638 143.36Z" fill="#B036CE"/>
<path d="M130.619 141.157C130.422 140.971 130.161 140.867 129.889 140.867C129.618 140.867 129.357 140.971 129.16 141.157C128.476 141.808 127.552 142.788 127.552 143.358C127.552 143.929 128.505 144.941 129.193 145.592C129.381 145.769 129.63 145.868 129.889 145.868C130.148 145.868 130.398 145.769 130.586 145.592C131.274 144.941 132.225 143.939 132.225 143.358C132.225 142.777 131.303 141.808 130.619 141.157Z" fill="#B036CE"/>
<path d="M145.814 141.157C145.726 141.066 145.621 140.993 145.504 140.943C145.388 140.893 145.263 140.867 145.136 140.867C145.009 140.867 144.884 140.893 144.767 140.943C144.651 140.993 144.545 141.066 144.458 141.157C143.82 141.808 142.962 142.787 142.962 143.358C142.962 143.929 143.852 144.941 144.489 145.591C144.572 145.68 144.672 145.75 144.784 145.798C144.895 145.846 145.015 145.871 145.137 145.871C145.258 145.871 145.378 145.846 145.489 145.798C145.601 145.75 145.701 145.68 145.784 145.591C146.424 144.941 147.311 143.939 147.311 143.358C147.311 142.777 146.453 141.808 145.814 141.157Z" fill="#B036CE"/>
<path d="M161.289 141.157C161.092 140.971 160.832 140.867 160.56 140.867C160.289 140.867 160.028 140.971 159.831 141.157C159.146 141.808 158.225 142.788 158.225 143.358C158.225 143.929 159.176 144.941 159.864 145.592C160.052 145.769 160.301 145.868 160.56 145.868C160.819 145.868 161.068 145.769 161.257 145.592C161.945 144.941 162.896 143.939 162.896 143.358C162.896 142.777 161.974 141.808 161.289 141.157Z" fill="#B036CE"/>
<path d="M176.486 141.157C176.399 141.065 176.293 140.992 176.176 140.943C176.06 140.893 175.934 140.867 175.807 140.867C175.681 140.867 175.555 140.893 175.438 140.943C175.322 140.992 175.216 141.065 175.129 141.157C174.491 141.808 173.633 142.787 173.633 143.358C173.633 143.928 174.523 144.941 175.16 145.591C175.243 145.68 175.343 145.75 175.455 145.798C175.566 145.846 175.686 145.871 175.807 145.871C175.929 145.871 176.049 145.846 176.16 145.798C176.272 145.75 176.372 145.68 176.455 145.591C177.095 144.941 177.982 143.939 177.982 143.358C177.982 142.777 177.118 141.808 176.486 141.157Z" fill="#B036CE"/>
<path d="M191.959 141.157C191.763 140.971 191.502 140.867 191.231 140.867C190.96 140.867 190.699 140.971 190.503 141.157C189.816 141.808 188.895 142.787 188.895 143.358C188.895 143.929 189.846 144.941 190.535 145.591C190.723 145.769 190.972 145.868 191.231 145.868C191.49 145.868 191.739 145.769 191.927 145.591C192.616 144.941 193.567 143.939 193.567 143.358C193.567 142.777 192.646 141.808 191.959 141.157Z" fill="#B036CE"/>
<path d="M207.157 141.157C207.069 141.066 206.964 140.993 206.848 140.943C206.731 140.893 206.606 140.867 206.479 140.867C206.352 140.867 206.227 140.893 206.11 140.943C205.994 140.993 205.889 141.066 205.801 141.157C205.162 141.808 204.304 142.787 204.304 143.358C204.304 143.929 205.193 144.941 205.831 145.591C205.914 145.68 206.014 145.75 206.125 145.798C206.237 145.846 206.357 145.871 206.478 145.871C206.6 145.871 206.72 145.846 206.831 145.798C206.942 145.75 207.043 145.68 207.126 145.591C207.767 144.941 208.652 143.939 208.652 143.358C208.652 142.777 207.796 141.808 207.157 141.157Z" fill="#B036CE"/>
<path d="M122.913 131.952C122.716 131.766 122.455 131.662 122.184 131.662C121.913 131.662 121.652 131.766 121.455 131.952C120.77 132.603 119.848 133.583 119.848 134.153C119.848 134.724 120.8 135.736 121.487 136.387C121.676 136.564 121.925 136.662 122.184 136.662C122.443 136.662 122.692 136.564 122.88 136.387C123.568 135.736 124.521 134.734 124.521 134.153C124.521 133.572 123.598 132.603 122.913 131.952Z" fill="#B036CE"/>
<path d="M138.11 131.952C138.023 131.861 137.917 131.788 137.801 131.738C137.684 131.688 137.558 131.662 137.431 131.662C137.305 131.662 137.179 131.688 137.062 131.738C136.946 131.788 136.84 131.861 136.753 131.952C136.115 132.603 135.257 133.583 135.257 134.153C135.257 134.724 136.147 135.736 136.784 136.387C136.868 136.474 136.968 136.543 137.079 136.591C137.191 136.638 137.311 136.662 137.431 136.662C137.552 136.662 137.672 136.638 137.783 136.591C137.895 136.543 137.995 136.474 138.079 136.387C138.719 135.736 139.606 134.734 139.606 134.153C139.606 133.572 138.748 132.603 138.11 131.952Z" fill="#B036CE"/>
<path d="M153.584 131.952C153.388 131.766 153.127 131.662 152.856 131.662C152.585 131.662 152.324 131.766 152.128 131.952C151.441 132.603 150.52 133.582 150.52 134.153C150.52 134.724 151.471 135.736 152.16 136.387C152.349 136.563 152.597 136.662 152.856 136.662C153.114 136.662 153.363 136.563 153.552 136.387C154.241 135.736 155.192 134.734 155.192 134.153C155.192 133.572 154.271 132.603 153.584 131.952Z" fill="#B036CE"/>
<path d="M168.781 131.952C168.693 131.861 168.588 131.788 168.471 131.738C168.355 131.688 168.229 131.663 168.103 131.663C167.976 131.663 167.85 131.688 167.734 131.738C167.617 131.788 167.512 131.861 167.425 131.952C166.786 132.603 165.928 133.583 165.928 134.153C165.928 134.724 166.817 135.736 167.454 136.387C167.538 136.474 167.639 136.543 167.75 136.591C167.861 136.638 167.981 136.663 168.102 136.663C168.223 136.663 168.343 136.638 168.454 136.591C168.565 136.543 168.666 136.474 168.75 136.387C169.391 135.736 170.276 134.734 170.276 134.153C170.276 133.572 169.418 132.603 168.781 131.952Z" fill="#B036CE"/>
<path d="M184.254 131.952C184.058 131.766 183.797 131.662 183.526 131.662C183.255 131.662 182.994 131.766 182.797 131.952C182.111 132.603 181.189 133.582 181.189 134.153C181.189 134.724 182.141 135.736 182.83 136.387C183.019 136.563 183.267 136.662 183.526 136.662C183.784 136.662 184.033 136.563 184.222 136.387C184.911 135.736 185.862 134.734 185.862 134.153C185.862 133.572 184.94 132.603 184.254 131.952Z" fill="#B036CE"/>
<path d="M199.452 131.952C199.364 131.861 199.259 131.788 199.142 131.738C199.026 131.688 198.9 131.663 198.774 131.663C198.647 131.663 198.521 131.688 198.405 131.738C198.288 131.788 198.183 131.861 198.095 131.952C197.458 132.603 196.6 133.583 196.6 134.153C196.6 134.724 197.489 135.736 198.127 136.387C198.21 136.474 198.311 136.543 198.422 136.591C198.534 136.638 198.653 136.663 198.774 136.663C198.895 136.663 199.015 136.638 199.126 136.591C199.238 136.543 199.338 136.474 199.422 136.387C200.062 135.736 200.948 134.734 200.948 134.153C200.948 133.572 200.089 132.603 199.452 131.952Z" fill="#B036CE"/>
<path d="M116.638 123.764C116.638 124.344 115.749 125.347 115.113 125.998C115.03 126.086 114.93 126.156 114.818 126.204C114.707 126.253 114.587 126.277 114.465 126.277C114.344 126.277 114.224 126.253 114.113 126.204C114.001 126.156 113.901 126.086 113.818 125.998C113.593 125.769 113.341 125.5 113.106 125.221C113.185 124.361 113.329 123.177 113.593 121.766L113.787 121.565C113.874 121.473 113.98 121.4 114.096 121.351C114.213 121.301 114.338 121.275 114.465 121.275C114.591 121.275 114.717 121.301 114.833 121.351C114.95 121.4 115.055 121.473 115.143 121.565C115.78 122.214 116.638 123.195 116.638 123.764Z" fill="#B036CE"/>
<path d="M130.619 121.563C130.422 121.377 130.161 121.273 129.889 121.273C129.618 121.273 129.357 121.377 129.16 121.563C128.476 122.214 127.552 123.193 127.552 123.766C127.552 124.338 128.505 125.348 129.193 125.998C129.381 126.175 129.63 126.274 129.889 126.274C130.148 126.274 130.398 126.175 130.586 125.998C131.274 125.348 132.225 124.345 132.225 123.766C132.225 123.186 131.303 122.214 130.619 121.563Z" fill="#B036CE"/>
<path d="M145.814 121.563C145.726 121.472 145.621 121.399 145.504 121.349C145.388 121.299 145.263 121.273 145.136 121.273C145.009 121.273 144.884 121.299 144.767 121.349C144.651 121.399 144.545 121.472 144.458 121.563C143.82 122.214 142.962 123.193 142.962 123.766C142.962 124.338 143.852 125.348 144.489 125.997C144.572 126.086 144.672 126.156 144.784 126.204C144.895 126.252 145.015 126.277 145.137 126.277C145.258 126.277 145.378 126.252 145.489 126.204C145.601 126.156 145.701 126.086 145.784 125.997C146.424 125.348 147.311 124.345 147.311 123.766C147.311 123.186 146.453 122.214 145.814 121.563Z" fill="#B036CE"/>
<path d="M161.289 121.563C161.092 121.377 160.832 121.273 160.56 121.273C160.289 121.273 160.028 121.377 159.831 121.563C159.146 122.214 158.225 123.193 158.225 123.766C158.225 124.338 159.176 125.348 159.864 125.998C160.052 126.175 160.301 126.274 160.56 126.274C160.819 126.274 161.068 126.175 161.257 125.998C161.945 125.348 162.896 124.345 162.896 123.766C162.896 123.186 161.974 122.214 161.289 121.563Z" fill="#B036CE"/>
<path d="M176.486 121.563C176.399 121.472 176.293 121.399 176.176 121.349C176.06 121.299 175.934 121.273 175.807 121.273C175.681 121.273 175.555 121.299 175.438 121.349C175.322 121.399 175.216 121.472 175.129 121.563C174.491 122.214 173.633 123.194 173.633 123.766C173.633 124.338 174.523 125.348 175.16 125.998C175.243 126.086 175.343 126.156 175.455 126.204C175.566 126.253 175.686 126.277 175.807 126.277C175.929 126.277 176.049 126.253 176.16 126.204C176.272 126.156 176.372 126.086 176.455 125.998C177.095 125.348 177.982 124.345 177.982 123.766C177.982 123.186 177.118 122.214 176.486 121.563Z" fill="#B036CE"/>
<path d="M191.959 121.563C191.763 121.377 191.502 121.273 191.231 121.273C190.96 121.273 190.699 121.377 190.503 121.563C189.816 122.214 188.895 123.194 188.895 123.766C188.895 124.338 189.846 125.348 190.535 125.998C190.723 126.175 190.972 126.274 191.231 126.274C191.49 126.274 191.739 126.175 191.927 125.998C192.616 125.348 193.567 124.345 193.567 123.766C193.567 123.186 192.646 122.214 191.959 121.563Z" fill="#B036CE"/>
<path d="M208.389 124.477C208.024 125.027 207.602 125.537 207.13 125.997C207.047 126.085 206.946 126.155 206.835 126.202C206.723 126.25 206.603 126.274 206.482 126.274C206.361 126.274 206.241 126.25 206.13 126.202C206.018 126.155 205.917 126.085 205.834 125.997C205.193 125.347 204.307 124.343 204.307 123.764C204.307 123.185 205.165 122.214 205.804 121.563C205.892 121.472 205.997 121.399 206.113 121.349C206.23 121.299 206.355 121.273 206.482 121.273C206.609 121.273 206.734 121.299 206.851 121.349C206.967 121.399 207.072 121.472 207.16 121.563C207.493 121.898 207.806 122.254 208.095 122.627C208.199 123.241 208.295 123.854 208.389 124.477Z" fill="#B036CE"/>
<path d="M122.913 112.358C122.716 112.172 122.455 112.068 122.184 112.068C121.913 112.068 121.652 112.172 121.455 112.358C120.77 113.009 119.848 113.988 119.848 114.56C119.848 115.132 120.8 116.142 121.487 116.792C121.676 116.97 121.925 117.069 122.184 117.069C122.443 117.069 122.692 116.97 122.88 116.792C123.568 116.142 124.521 115.14 124.521 114.56C124.521 113.981 123.598 113.015 122.913 112.358Z" fill="#B036CE"/>
<path d="M138.11 112.358C138.023 112.267 137.917 112.194 137.801 112.144C137.684 112.094 137.558 112.068 137.431 112.068C137.305 112.068 137.179 112.094 137.062 112.144C136.946 112.194 136.84 112.267 136.753 112.358C136.115 113.009 135.257 113.989 135.257 114.561C135.257 115.133 136.147 116.142 136.784 116.793C136.867 116.881 136.967 116.951 137.079 117C137.19 117.048 137.31 117.072 137.431 117.072C137.553 117.072 137.673 117.048 137.784 117C137.896 116.951 137.996 116.881 138.079 116.793C138.719 116.142 139.606 115.14 139.606 114.561C139.606 113.981 138.748 113.015 138.11 112.358Z" fill="#B036CE"/>
<path d="M153.584 112.358C153.388 112.172 153.127 112.068 152.856 112.068C152.585 112.068 152.324 112.172 152.128 112.358C151.441 113.009 150.52 113.989 150.52 114.561C150.52 115.133 151.471 116.142 152.16 116.793C152.348 116.97 152.597 117.069 152.856 117.069C153.115 117.069 153.364 116.97 153.552 116.793C154.241 116.142 155.192 115.14 155.192 114.561C155.192 113.981 154.271 113.015 153.584 112.358Z" fill="#B036CE"/>
<path d="M168.781 112.358C168.693 112.267 168.588 112.194 168.471 112.144C168.355 112.094 168.229 112.068 168.103 112.068C167.976 112.068 167.85 112.094 167.734 112.144C167.617 112.194 167.512 112.267 167.425 112.358C166.786 113.009 165.928 113.989 165.928 114.561C165.928 115.133 166.817 116.142 167.454 116.793C167.537 116.881 167.638 116.951 167.749 116.999C167.86 117.048 167.981 117.072 168.102 117.072C168.223 117.072 168.343 117.048 168.455 116.999C168.566 116.951 168.666 116.881 168.75 116.793C169.391 116.142 170.276 115.14 170.276 114.561C170.276 113.981 169.418 113.015 168.781 112.358Z" fill="#B036CE"/>
<path d="M184.254 112.358C184.058 112.172 183.797 112.068 183.526 112.068C183.255 112.068 182.994 112.172 182.797 112.358C182.111 113.009 181.189 113.989 181.189 114.561C181.189 115.133 182.141 116.142 182.83 116.793C183.018 116.97 183.267 117.069 183.526 117.069C183.785 117.069 184.034 116.97 184.222 116.793C184.911 116.142 185.862 115.14 185.862 114.561C185.862 113.981 184.94 113.015 184.254 112.358Z" fill="#B036CE"/>
<path d="M199.452 112.358C199.364 112.267 199.259 112.194 199.142 112.144C199.026 112.094 198.9 112.068 198.774 112.068C198.647 112.068 198.521 112.094 198.405 112.144C198.288 112.194 198.183 112.267 198.095 112.358C197.458 113.009 196.6 113.989 196.6 114.561C196.6 115.133 197.489 116.142 198.127 116.793C198.21 116.881 198.31 116.951 198.421 116.999C198.533 117.048 198.653 117.072 198.774 117.072C198.896 117.072 199.016 117.048 199.127 116.999C199.238 116.951 199.339 116.881 199.422 116.793C200.062 116.142 200.948 115.14 200.948 114.561C200.948 113.981 200.089 113.015 199.452 112.358Z" fill="#B036CE"/>
<path d="M130.619 101.971C130.422 101.784 130.161 101.679 129.889 101.679C129.618 101.679 129.357 101.784 129.16 101.971C128.476 102.62 127.552 103.601 127.552 104.171C127.552 104.742 128.505 105.754 129.193 106.403C129.381 106.581 129.63 106.68 129.889 106.68C130.148 106.68 130.398 106.581 130.586 106.403C131.274 105.754 132.225 104.751 132.225 104.171C132.225 103.592 131.303 102.62 130.619 101.971Z" fill="#B036CE"/>
<path d="M145.814 101.971C145.726 101.879 145.621 101.805 145.505 101.755C145.388 101.705 145.263 101.68 145.136 101.68C145.009 101.68 144.883 101.705 144.767 101.755C144.65 101.805 144.545 101.879 144.458 101.971C143.82 102.62 142.962 103.601 142.962 104.172C142.962 104.742 143.852 105.754 144.489 106.404C144.572 106.492 144.672 106.562 144.784 106.61C144.895 106.659 145.015 106.683 145.137 106.683C145.258 106.683 145.378 106.659 145.489 106.61C145.601 106.562 145.701 106.492 145.784 106.404C146.424 105.754 147.311 104.751 147.311 104.172C147.311 103.592 146.453 102.62 145.814 101.971Z" fill="#B036CE"/>
<path d="M161.289 101.971C161.093 101.784 160.832 101.679 160.56 101.679C160.289 101.679 160.028 101.784 159.831 101.971C159.146 102.62 158.225 103.601 158.225 104.171C158.225 104.742 159.176 105.754 159.864 106.403C160.052 106.581 160.301 106.68 160.56 106.68C160.819 106.68 161.068 106.581 161.257 106.403C161.945 105.754 162.896 104.751 162.896 104.171C162.896 103.592 161.974 102.62 161.289 101.971Z" fill="#B036CE"/>
<path d="M176.486 101.971C176.399 101.879 176.293 101.805 176.177 101.755C176.06 101.705 175.934 101.68 175.807 101.68C175.68 101.68 175.555 101.705 175.438 101.755C175.321 101.805 175.216 101.879 175.129 101.971C174.491 102.62 173.633 103.601 173.633 104.172C173.633 104.742 174.523 105.754 175.16 106.404C175.243 106.492 175.343 106.562 175.455 106.61C175.566 106.659 175.686 106.683 175.807 106.683C175.929 106.683 176.049 106.659 176.16 106.61C176.272 106.562 176.372 106.492 176.455 106.404C177.095 105.754 177.982 104.751 177.982 104.172C177.982 103.592 177.118 102.62 176.486 101.971Z" fill="#B036CE"/>
<path d="M191.959 101.971C191.763 101.784 191.502 101.68 191.231 101.68C190.96 101.68 190.699 101.784 190.503 101.971C189.816 102.62 188.895 103.601 188.895 104.172C188.895 104.742 189.846 105.754 190.535 106.404C190.723 106.581 190.972 106.68 191.231 106.68C191.49 106.68 191.739 106.581 191.927 106.404C192.616 105.754 193.567 104.751 193.567 104.172C193.567 103.592 192.646 102.62 191.959 101.971Z" fill="#B036CE"/>
<path d="M139.606 94.9666C139.606 95.5475 138.716 96.5493 138.081 97.1985C137.997 97.2859 137.896 97.3556 137.785 97.4031C137.673 97.4507 137.553 97.4752 137.432 97.4752C137.311 97.4752 137.191 97.4507 137.08 97.4031C136.968 97.3556 136.868 97.2859 136.784 97.1985C136.142 96.5493 135.257 95.5475 135.257 94.9666C135.259 94.875 135.276 94.7844 135.308 94.6983C136.41 94.2616 137.568 93.8619 138.782 93.4993C139.225 94.0239 139.606 94.5872 139.606 94.9666Z" fill="#B036CE"/>
<path d="M185.861 95.0643C185.766 95.6572 184.88 96.5849 184.231 97.1984C184.043 97.376 183.794 97.475 183.535 97.475C183.276 97.475 183.027 97.376 182.839 97.1984C182.15 96.5493 181.2 95.5475 181.2 94.9666C181.2 94.5664 181.657 93.9618 182.164 93.4119C183.257 93.8639 184.511 94.4123 185.861 95.0643Z" fill="#B036CE"/>
<path d="M177.641 91.7726C177.429 92.0083 162.333 108.7 143.155 92.4366C144.219 92.2291 145.323 92.0518 146.466 91.9046L177.641 91.7726Z" fill="#120283"/>
<path d="M177.642 91.7714C174.189 94.6451 170.843 96.3909 167.692 97.3424H167.67C157.275 100.455 148.996 94.8733 145.77 92.1745C146.004 92.0841 146.238 91.9951 146.466 91.9003C147.072 91.6592 147.656 91.3666 148.212 91.0259C150.607 89.5587 152.176 87.5283 153.198 85.3942C155.681 80.1907 154.932 74.3382 154.932 74.3382H169.516C169.351 76.2875 169.371 78.2481 169.576 80.1937C169.753 81.9455 170.103 83.6232 170.761 85.1674C171.889 87.8677 173.952 90.1678 177.642 91.7714Z" fill="#E8ECF8"/>
<path d="M169.571 80.1904C168.717 81.6517 167.496 82.6832 165.761 82.8285C158.966 83.3931 155.143 76.7166 155.223 76.1001L155.576 74.3335H169.507C169.344 76.2835 169.365 78.2445 169.571 80.1904Z" fill="#120283"/>
<path d="M178.722 61.5702C178.722 59.6673 177.376 58.123 175.718 58.123C174.06 58.123 172.714 59.6673 172.714 61.5702C172.714 63.4732 174.058 65.8682 175.718 65.8682C177.378 65.8682 178.722 63.4747 178.722 61.5702Z" fill="#E8ECF8"/>
<path d="M174.93 62.7517L174.72 62.731C174.72 62.7073 174.976 60.4605 177.063 60.4056V60.6176C175.167 60.668 174.933 62.731 174.93 62.7517Z" fill="#120283"/>
<path d="M176.99 62.433C176.634 62.0656 176.271 61.8922 175.91 61.9115C175.363 61.9426 174.991 62.4182 174.988 62.4226L174.819 62.2938C174.837 62.2715 175.25 61.7367 175.895 61.7011C176.329 61.6759 176.741 61.873 177.143 62.2863L176.99 62.433Z" fill="#120283"/>
<path d="M145.36 61.5702C145.36 59.6673 146.704 58.123 148.364 58.123C150.024 58.123 151.366 59.6673 151.366 61.5702C151.366 63.4732 150.022 65.8682 148.364 65.8682C146.705 65.8682 145.36 63.4747 145.36 61.5702Z" fill="#E8ECF8"/>
<path d="M149.484 62.7517L149.695 62.731C149.695 62.7073 149.438 60.4605 147.353 60.4056V60.6176C149.248 60.668 149.482 62.731 149.484 62.7517Z" fill="#120283"/>
<path d="M147.425 62.433C147.78 62.0656 148.143 61.8922 148.505 61.9115C149.052 61.9426 149.422 62.4182 149.427 62.4226L149.596 62.2938C149.578 62.2715 149.165 61.7367 148.518 61.7011C148.084 61.6759 147.672 61.873 147.272 62.2863L147.425 62.433Z" fill="#120283"/>
<path d="M170.63 74.8064C168.407 77.363 165.591 79.0095 162.206 78.9561C158.83 79.011 156.01 77.3644 153.784 74.8064C153.772 74.7893 153.759 74.7734 153.744 74.759C149.757 69.7201 148.946 62.381 150.025 53.6429C150.802 47.3561 156.73 44.9197 160.02 44.0438C161.452 43.6629 162.96 43.6629 164.392 44.0438C167.684 44.9197 173.61 47.3561 174.388 53.6429C175.472 62.4077 174.652 69.7675 170.63 74.8064Z" fill="#E8ECF8"/>
<path d="M166.755 62.4197C167.154 62.4197 167.478 62.0958 167.478 61.6964C167.478 61.297 167.154 60.9732 166.755 60.9732C166.355 60.9732 166.031 61.297 166.031 61.6964C166.031 62.0958 166.355 62.4197 166.755 62.4197Z" fill="#120283"/>
<path d="M157.202 62.4197C157.601 62.4197 157.925 62.0958 157.925 61.6964C157.925 61.297 157.601 60.9732 157.202 60.9732C156.802 60.9732 156.478 61.297 156.478 61.6964C156.478 62.0958 156.802 62.4197 157.202 62.4197Z" fill="#120283"/>
<path d="M170.615 55.6869C170.615 55.6869 168.879 55.7581 166.603 55.7759C164.327 55.7937 163.737 55.7581 163.935 54.8347C164.134 53.9112 166.425 53.9275 167.849 54.2418C169.274 54.556 170.615 55.6869 170.615 55.6869Z" fill="#120283"/>
<path d="M153.171 55.6869C153.171 55.6869 154.905 55.7581 157.183 55.7759C159.461 55.7937 160.05 55.7581 159.851 54.8347C159.652 53.9112 157.363 53.9275 155.937 54.2418C154.511 54.556 153.171 55.6869 153.171 55.6869Z" fill="#120283"/>
<path d="M161.721 66.7754C161.462 66.7754 161.206 66.7339 161.063 66.602C161.015 66.5564 160.979 66.4993 160.959 66.436C160.94 66.3727 160.936 66.3054 160.949 66.2403C161.055 65.5764 161.441 62.9413 161.446 62.9147L161.655 62.9458C161.655 62.9725 161.265 65.6135 161.16 66.273C161.151 66.3035 161.151 66.3357 161.16 66.3662C161.168 66.3968 161.184 66.4245 161.207 66.4464C161.406 66.6301 162.096 66.5605 162.482 66.4716L162.529 66.6791C162.264 66.7381 161.993 66.7704 161.721 66.7754Z" fill="#120283"/>
<path d="M162.446 68.3241C162.188 68.3274 161.93 68.304 161.677 68.2545C161.661 68.2511 161.646 68.2444 161.633 68.235C161.62 68.2255 161.609 68.2135 161.6 68.1996C161.592 68.1857 161.587 68.1703 161.585 68.1542C161.582 68.1382 161.584 68.1219 161.588 68.1063C161.592 68.0906 161.598 68.0757 161.608 68.0627C161.617 68.0496 161.629 68.0386 161.643 68.0303C161.657 68.022 161.672 68.0166 161.688 68.0144C161.704 68.0121 161.721 68.0131 161.736 68.0173C161.844 68.0425 164.404 68.5983 165.738 66.1766C165.745 66.1629 165.755 66.1508 165.768 66.141C165.78 66.1312 165.794 66.1238 165.809 66.1194C165.824 66.115 165.84 66.1136 165.855 66.1153C165.871 66.117 165.886 66.1217 165.899 66.1292C165.913 66.1367 165.925 66.1468 165.935 66.159C165.945 66.1712 165.952 66.1851 165.957 66.2001C165.961 66.2151 165.962 66.2309 165.961 66.2464C165.959 66.2619 165.954 66.277 165.947 66.2907C164.982 68.0366 163.392 68.3241 162.446 68.3241Z" fill="#120283"/>
<path d="M164.076 68.8251C164.045 68.8261 164.016 68.8156 163.993 68.7956C163.971 68.7757 163.956 68.7478 163.954 68.7177C163.951 68.6877 163.96 68.6577 163.978 68.6338C163.997 68.61 164.024 68.5941 164.053 68.5894C164.231 68.5557 164.402 68.492 164.559 68.4012C164.572 68.3931 164.587 68.3878 164.603 68.3856C164.618 68.3833 164.634 68.3841 164.649 68.388C164.664 68.3919 164.678 68.3987 164.691 68.4081C164.703 68.4174 164.714 68.4292 164.722 68.4427C164.738 68.4699 164.742 68.5022 164.734 68.5327C164.727 68.5632 164.707 68.5894 164.68 68.6058C164.5 68.7101 164.304 68.7832 164.099 68.8222L164.076 68.8251Z" fill="#120283"/>
<path d="M173.6 49.84L174.394 61.6963L175.249 57.6948C175.249 57.6948 177.794 52.3891 173.6 49.84Z" fill="#120283"/>
<path d="M150.813 48.4542L149.694 61.6932L149.163 57.6917C149.163 57.6917 146.619 52.389 150.813 48.4542Z" fill="#120283"/>
<path d="M177.642 91.7711C174.189 94.6449 170.843 96.3907 167.692 97.3422H167.67C157.275 100.455 148.996 94.8731 145.77 92.1742C146.004 92.0838 146.238 91.9949 146.466 91.9C147.072 91.6589 147.656 91.3664 148.212 91.0256C150.607 89.5584 152.176 87.528 153.198 85.3938C156.365 86.5201 163.256 88.2097 170.755 85.1671C171.889 87.8674 173.952 90.1675 177.642 91.7711Z" fill="#E8ECF8"/>
<path d="M177.139 58.5352C170.227 62.8494 166.793 54.089 166.752 49.8415C166.71 45.5939 162.206 45.7955 162.206 45.7955C159.851 45.3212 156.586 47.4806 157.2 51.6925C157.813 55.9045 155.237 57.5911 152.036 58.6019C148.835 59.6126 146.896 57.6756 146.896 57.6756L147.089 56.6708C149.016 56.819 153.293 56.5907 154.843 52.1179C154.738 52.2394 152.204 57.4221 147.184 56.1802L149.693 43.1826L162.258 40.0703H165.948C165.948 40.0703 172.766 42.7661 174.716 47.2316C176.666 51.697 175.715 56.7063 175.715 56.7063C172.634 57.437 170.222 52.8752 170.153 52.7537C172.259 58.1009 177.067 57.0635 177.067 57.0635L177.139 58.5352Z" fill="#120283"/>
<path d="M256.418 47.7628C256.418 47.7628 265.433 43.3918 270.253 53.8698C275.074 64.3479 274 72.9847 280.01 77.3188C286.02 81.6529 283.288 88.2121 279.873 92.6008C276.459 96.9896 266.964 101.628 258.734 97.1917C250.505 92.7552 244.769 99.003 238.623 92.6008C232.476 86.1987 232.548 80.1709 236.268 75.946C239.987 71.7212 241.705 41.8374 256.418 47.7628Z" fill="#120283"/>
<path d="M301.952 128.402C301.952 128.415 301.952 128.428 301.952 128.441C301.908 129.143 301.86 129.835 301.815 130.519C301.666 132.715 301.51 134.822 301.348 136.838C299.736 156.952 297.66 168 297.66 168H217.163C217.163 168 214.166 150.676 213.403 136.029C213.13 130.782 213.143 125.88 213.684 122.233C214.975 113.566 219.951 108.008 225.46 104.46L225.497 104.435C226.2 103.983 226.913 103.565 227.628 103.177C227.949 103.004 228.267 102.836 228.584 102.673C229.979 101.969 231.414 101.346 232.881 100.809C233.732 100.496 234.56 100.221 235.355 99.9794C235.546 99.9221 235.734 99.8661 235.92 99.8128C237.354 99.403 238.652 99.0957 239.745 98.8744C240.881 98.6375 242.029 98.4588 243.184 98.339L270.683 98.2215H270.705C272.204 98.4639 273.69 98.783 275.156 99.1776H275.163C276.137 99.4331 277.231 99.7486 278.405 100.134L278.548 100.18C279.308 100.43 280.1 100.709 280.915 101.018C282.059 101.451 283.247 101.945 284.449 102.509C285.114 102.819 285.783 103.152 286.455 103.508C286.785 103.681 287.114 103.861 287.443 104.046C295.294 108.465 302.754 115.955 301.952 128.402Z" fill="#BF0830"/>
<path d="M270.696 98.2269C267.65 100.762 264.698 102.301 261.92 103.144H261.901C252.735 105.894 245.432 100.968 242.588 98.5862C242.794 98.5083 242.998 98.4291 243.203 98.3471C243.737 98.1338 244.252 97.8756 244.742 97.5754C251.981 93.132 250.667 80.9289 250.667 80.9289H263.53C263.386 82.6487 263.403 84.3783 263.582 86.0948C264.015 90.3456 265.579 96.0059 270.696 98.2269Z" fill="#E8ECF8"/>
<path d="M263.576 86.0949C262.824 87.383 261.744 88.2927 260.217 88.417C254.224 88.9142 250.853 83.027 250.929 82.4833L251.24 80.9248H263.534C263.386 82.6457 263.4 84.3767 263.576 86.0949Z" fill="#120283"/>
<path d="M271.646 69.6734C271.646 67.9933 270.46 66.6329 268.998 66.6329C267.535 66.6329 266.348 67.9988 266.348 69.6734C266.348 71.3481 267.533 73.4625 268.998 73.4625C270.462 73.4625 271.646 71.359 271.646 69.6734Z" fill="#E8ECF8"/>
<path d="M268.303 70.7144L268.118 70.6953C268.118 70.6761 268.344 68.6942 270.184 68.6464V68.8335C268.511 68.8772 268.305 70.6966 268.303 70.7144Z" fill="#120283"/>
<path d="M270.119 70.433C269.807 70.1093 269.487 69.9563 269.163 69.9727C268.681 70 268.353 70.4207 268.351 70.4248L268.202 70.3114C268.318 70.1657 268.461 70.0442 268.624 69.954C268.787 69.8638 268.966 69.8065 269.151 69.7856C269.533 69.7651 269.897 69.9372 270.251 70.3033L270.119 70.433Z" fill="#120283"/>
<path d="M242.225 69.6734C242.225 67.9933 243.41 66.6329 244.873 66.6329C246.336 66.6329 247.523 67.9988 247.523 69.6734C247.523 71.3481 246.336 73.4625 244.873 73.4625C243.41 73.4625 242.225 71.359 242.225 69.6734Z" fill="#E8ECF8"/>
<path d="M245.861 70.7144L246.048 70.6953C246.048 70.6761 245.821 68.6942 243.981 68.6464V68.8335C245.653 68.8772 245.859 70.6966 245.861 70.7144Z" fill="#120283"/>
<path d="M244.046 70.433C244.358 70.1093 244.679 69.9563 245.002 69.9727C245.485 70 245.812 70.4207 245.821 70.4248L245.97 70.3114C245.954 70.291 245.589 69.8197 245.014 69.7856C244.632 69.7651 244.268 69.9372 243.915 70.3033L244.046 70.433Z" fill="#120283"/>
<path d="M264.509 81.3455C262.547 83.6006 260.063 85.0526 257.081 85.0034C254.104 85.0526 251.618 83.6006 249.653 81.3455C249.642 81.3306 249.631 81.3165 249.618 81.3031C246.102 76.8597 245.383 70.3866 246.34 62.6814C247.296 54.9502 257.083 53.8206 257.083 53.8206C257.083 53.8206 266.871 54.9502 267.826 62.6814C268.781 70.4125 268.057 76.9021 264.509 81.3455Z" fill="#E8ECF8"/>
<path d="M260.527 71.1527C260.961 71.1527 261.312 70.8011 261.312 70.3673C261.312 69.9335 260.961 69.5819 260.527 69.5819C260.093 69.5819 259.741 69.9335 259.741 70.3673C259.741 70.8011 260.093 71.1527 260.527 71.1527Z" fill="#120283"/>
<path d="M253.02 71.1527C253.454 71.1527 253.805 70.8011 253.805 70.3673C253.805 69.9335 253.454 69.5819 253.02 69.5819C252.586 69.5819 252.234 69.9335 252.234 70.3673C252.234 70.8011 252.586 71.1527 253.02 71.1527Z" fill="#120283"/>
<path d="M265.177 64.2712C265.177 64.2712 263.513 64.3149 261.326 64.3259C259.139 64.3368 258.577 64.3149 258.772 63.7535C258.967 63.1921 261.16 63.2072 262.528 63.3984C263.45 63.5542 264.343 63.8484 265.177 64.2712Z" fill="#120283"/>
<path d="M248.435 64.2712C248.435 64.2712 250.1 64.3149 252.287 64.3259C254.473 64.3368 255.036 64.3149 254.841 63.7535C254.646 63.1921 252.452 63.2072 251.085 63.3984C250.162 63.554 249.269 63.8483 248.435 64.2712Z" fill="#120283"/>
<path d="M256.654 74.6783C256.426 74.6783 256.199 74.6414 256.073 74.5239C256.03 74.4841 255.999 74.4338 255.981 74.378C255.964 74.3222 255.961 74.2628 255.973 74.2057C256.066 73.621 256.406 71.2962 256.411 71.273L256.595 71.3003C256.595 71.3235 256.251 73.6484 256.158 74.2357C256.151 74.2625 256.151 74.2907 256.158 74.3173C256.166 74.344 256.18 74.3682 256.2 74.3873C256.375 74.5499 256.982 74.4884 257.324 74.4106L257.367 74.5922C257.133 74.645 256.894 74.6739 256.654 74.6783Z" fill="#120283"/>
<path d="M257.25 75.3379C257.25 75.3379 259.237 75.816 260.125 74.8598C260.125 74.8598 259.737 76.943 257.25 75.3379Z" fill="#E8ECF8"/>
<path d="M267.129 59.3282L268.112 73.2033L268.58 66.2576C268.58 66.2576 270.828 61.5752 267.129 59.3282Z" fill="#120283"/>
<path d="M247.034 59.3282L246.244 72.8195L245.579 66.263C245.579 66.263 243.334 61.5752 247.034 59.3282Z" fill="#120283"/>
<path d="M246.047 66.2656C246.047 66.2656 250.734 64.0801 253.466 59.3281C256.198 54.576 256.286 54.0296 258.734 59.6982C261.182 65.3668 265.114 71.7184 270.696 66.6331C270.696 66.6331 269.515 58.4102 267.808 55.6059C266.101 52.8017 258.781 49.9318 257.249 49.9318C255.718 49.9318 245.709 52.5271 245.011 55.259C244.313 57.9908 246.047 66.2656 246.047 66.2656Z" fill="#120283"/>
<path d="M274.395 98.9933C270.464 102.334 264.33 106.608 257.705 107.675C250.251 108.876 243.784 102.945 240.257 98.7856C242.075 98.4414 243.202 98.3458 243.202 98.3458L270.701 98.2283H270.722C270.911 98.2679 272.299 98.4756 274.395 98.9933Z" fill="#E8ECF8"/>
<path d="M301.952 128.402C301.952 128.415 301.952 128.428 301.952 128.441C296.121 106.902 275.609 99.347 275.18 99.194C276.154 99.4495 277.248 99.765 278.421 100.15L278.564 100.197C279.324 100.447 280.116 100.725 280.932 101.034C282.075 101.467 283.263 101.961 284.465 102.526C285.13 102.835 285.799 103.168 286.472 103.524C286.801 103.697 287.13 103.878 287.459 104.062C295.294 108.465 302.754 115.955 301.952 128.402Z" fill="#120283"/>
<defs>
<linearGradient id="paint0_linear_405_14251" x1="335.585" y1="28.9142" x2="158.305" y2="102.649" gradientUnits="userSpaceOnUse">
<stop stop-color="#E3E7F6"/>
<stop offset="1" stop-color="#E3E7F6" stop-opacity="0"/>
</linearGradient>
<linearGradient id="paint1_linear_405_14251" x1="223.585" y1="2.91415" x2="46.3045" y2="76.6486" gradientUnits="userSpaceOnUse">
<stop stop-color="#E3E7F6"/>
<stop offset="1" stop-color="#E3E7F6" stop-opacity="0"/>
</linearGradient>
<linearGradient id="paint2_linear_405_14251" x1="125.585" y1="35.9142" x2="-51.6955" y2="109.649" gradientUnits="userSpaceOnUse">
<stop stop-color="#E3E7F6"/>
<stop offset="1" stop-color="#E3E7F6" stop-opacity="0"/>
</linearGradient>
</defs>
</svg>
